<?xml version="1.0" encoding="utf-8"?>
<!-- Generator: Adobe Illustrator 25.0.0, SVG Export Plug-In . SVG Version: 6.00 Build 0)  -->
<!DOCTYPE svg PUBLIC "-//W3C//DTD SVG 1.1//EN" "http://www.w3.org/Graphics/SVG/1.1/DTD/svg11.dtd" [
	<!ENTITY ns_extend "http://ns.adobe.com/Extensibility/1.0/">
	<!ENTITY ns_ai "http://ns.adobe.com/AdobeIllustrator/10.0/">
	<!ENTITY ns_graphs "http://ns.adobe.com/Graphs/1.0/">
	<!ENTITY ns_vars "http://ns.adobe.com/Variables/1.0/">
	<!ENTITY ns_imrep "http://ns.adobe.com/ImageReplacement/1.0/">
	<!ENTITY ns_sfw "http://ns.adobe.com/SaveForWeb/1.0/">
	<!ENTITY ns_custom "http://ns.adobe.com/GenericCustomNamespace/1.0/">
	<!ENTITY ns_adobe_xpath "http://ns.adobe.com/XPath/1.0/">
]>
<svg version="1.1" id="Layer_1" xmlns:x="&ns_extend;" xmlns:i="&ns_ai;" xmlns:graph="&ns_graphs;"
	 xmlns="http://www.w3.org/2000/svg" xmlns:xlink="http://www.w3.org/1999/xlink" x="0px" y="0px" viewBox="0 0 924.8 987.4"
	 style="enable-background:new 0 0 924.8 987.4;" xml:space="preserve">
<style type="text/css">
	.st0{fill:#F4FAFE;}
	.st1{opacity:0.1;}
	.st2{fill:#334752;}
	.st3{fill:#E6E4EB;}
	.st4{fill:#314584;}
	.st5{fill:#5767C7;}
	.st6{fill:#C7E6FF;}
	.st7{fill:#5768C8;}
	.st8{fill:#334787;}
	.st9{opacity:0.1;fill:#334752;enable-background:new    ;}
	.st10{fill:#C3D0D8;}
	.st11{fill:#EDF2F6;}
	.st12{opacity:0.2;fill:#334752;enable-background:new    ;}
	.st13{fill:url(#SVGID_1_);}
	.st14{fill:url(#SVGID_2_);}
	.st15{fill:url(#SVGID_3_);}
	.st16{fill:url(#SVGID_4_);}
	.st17{fill:url(#SVGID_5_);}
	.st18{fill:url(#SVGID_6_);}
	.st19{fill:url(#SVGID_7_);}
	.st20{fill:#FFE600;}
	.st21{fill:url(#SVGID_8_);}
	.st22{fill:url(#SVGID_9_);}
	.st23{fill:url(#SVGID_10_);}
	.st24{fill:#2C4755;}
	.st25{fill:url(#SVGID_11_);}
	.st26{fill:url(#SVGID_12_);}
	.st27{fill:url(#SVGID_13_);}
	.st28{fill:url(#SVGID_14_);}
	.st29{fill:url(#SVGID_15_);}
	.st30{fill:url(#SVGID_16_);}
	.st31{fill:url(#SVGID_17_);}
	.st32{fill:url(#SVGID_18_);}
	.st33{fill:url(#SVGID_19_);}
	.st34{fill:url(#SVGID_20_);}
	.st35{fill:url(#SVGID_21_);}
	.st36{fill:#6A6D89;}
	.st37{fill:url(#SVGID_22_);}
	.st38{fill:url(#SVGID_23_);}
	.st39{fill:url(#SVGID_24_);}
	.st40{fill:url(#SVGID_25_);}
	.st41{fill:url(#SVGID_26_);}
	.st42{fill:url(#SVGID_27_);}
	.st43{fill:url(#SVGID_28_);}
	.st44{fill:url(#SVGID_29_);}
	.st45{fill:#FFFFFF;}
	.st46{fill:url(#SVGID_30_);}
	.st47{fill:url(#SVGID_31_);}
	.st48{fill:url(#SVGID_32_);}
	.st49{fill:#131316;}
	.st50{fill:url(#SVGID_33_);}
	.st51{fill:url(#SVGID_34_);}
	.st52{fill:url(#SVGID_35_);}
	.st53{fill:url(#SVGID_36_);}
	.st54{fill:url(#SVGID_37_);}
	.st55{fill:url(#SVGID_38_);}
	.st56{fill:url(#SVGID_39_);}
	.st57{fill:url(#SVGID_40_);}
	.st58{fill:url(#SVGID_41_);}
	.st59{fill:url(#SVGID_42_);}
	.st60{fill:url(#SVGID_43_);}
	.st61{fill:url(#SVGID_44_);}
	.st62{fill:url(#SVGID_45_);}
	.st63{fill:url(#SVGID_46_);}
	.st64{fill:url(#SVGID_47_);}
	.st65{fill:url(#SVGID_48_);}
	.st66{fill:url(#SVGID_49_);}
	.st67{fill:#6A3C20;}
	.st68{fill:url(#SVGID_50_);}
	.st69{fill:url(#SVGID_51_);}
	.st70{fill:url(#SVGID_52_);}
	.st71{fill:url(#SVGID_53_);}
	.st72{fill:url(#SVGID_54_);}
	.st73{fill:url(#SVGID_55_);}
	.st74{fill:url(#SVGID_56_);}
	.st75{fill:url(#SVGID_57_);}
	.st76{fill:url(#SVGID_58_);}
	.st77{fill:url(#SVGID_59_);}
	.st78{fill:url(#SVGID_60_);}
	.st79{fill:url(#SVGID_61_);}
	.st80{fill:url(#SVGID_62_);}
	.st81{fill:url(#SVGID_63_);}
	.st82{fill:url(#SVGID_64_);}
	.st83{fill:url(#SVGID_65_);}
</style>
<metadata><?xpacket begin="﻿" id="W5M0MpCehiHzreSzNTczkc9d"?>
<x:xmpmeta xmlns:x="adobe:ns:meta/" x:xmptk="Adobe XMP Core 6.0-c002 79.164519, 2020/08/25-17:54:00        ">
   <rdf:RDF xmlns:rdf="http://www.w3.org/1999/02/22-rdf-syntax-ns#">
      <rdf:Description rdf:about=""
            xmlns:xmp="http://ns.adobe.com/xap/1.0/"
            xmlns:xmpGImg="http://ns.adobe.com/xap/1.0/g/img/"
            xmlns:xmpTPg="http://ns.adobe.com/xap/1.0/t/pg/"
            xmlns:stDim="http://ns.adobe.com/xap/1.0/sType/Dimensions#"
            xmlns:xmpG="http://ns.adobe.com/xap/1.0/g/"
            xmlns:illustrator="http://ns.adobe.com/illustrator/1.0/"
            xmlns:dc="http://purl.org/dc/elements/1.1/"
            xmlns:xmpMM="http://ns.adobe.com/xap/1.0/mm/"
            xmlns:stRef="http://ns.adobe.com/xap/1.0/sType/ResourceRef#"
            xmlns:stEvt="http://ns.adobe.com/xap/1.0/sType/ResourceEvent#">
         <xmp:CreatorTool>Adobe Illustrator 25.0 (Windows)</xmp:CreatorTool>
         <xmp:CreateDate>2021-11-23T15:36:09+01:00</xmp:CreateDate>
         <xmp:MetadataDate>2021-11-23T15:36:10+01:00</xmp:MetadataDate>
         <xmp:ModifyDate>2021-11-23T15:36:10+01:00</xmp:ModifyDate>
         <xmp:Thumbnails>
            <rdf:Alt>
               <rdf:li rdf:parseType="Resource">
                  <xmpGImg:width>240</xmpGImg:width>
                  <xmpGImg:height>256</xmpGImg:height>
                  <xmpGImg:format>JPEG</xmpGImg:format>
                  <xmpGImg:image>/9j/4AAQSkZJRgABAgEASABIAAD/7QAsUGhvdG9zaG9wIDMuMAA4QklNA+0AAAAAABAASAAAAAEA&#xA;AQBIAAAAAQAB/+4ADkFkb2JlAGTAAAAAAf/bAIQABgQEBAUEBgUFBgkGBQYJCwgGBggLDAoKCwoK&#xA;DBAMDAwMDAwQDA4PEA8ODBMTFBQTExwbGxscHx8fHx8fHx8fHwEHBwcNDA0YEBAYGhURFRofHx8f&#xA;Hx8fHx8fHx8fHx8fHx8fHx8fHx8fHx8fHx8fHx8fHx8fHx8fHx8fHx8fHx8f/8AAEQgBAADwAwER&#xA;AAIRAQMRAf/EAaIAAAAHAQEBAQEAAAAAAAAAAAQFAwIGAQAHCAkKCwEAAgIDAQEBAQEAAAAAAAAA&#xA;AQACAwQFBgcICQoLEAACAQMDAgQCBgcDBAIGAnMBAgMRBAAFIRIxQVEGE2EicYEUMpGhBxWxQiPB&#xA;UtHhMxZi8CRygvElQzRTkqKyY3PCNUQnk6OzNhdUZHTD0uIIJoMJChgZhJRFRqS0VtNVKBry4/PE&#xA;1OT0ZXWFlaW1xdXl9WZ2hpamtsbW5vY3R1dnd4eXp7fH1+f3OEhYaHiImKi4yNjo+Ck5SVlpeYmZ&#xA;qbnJ2en5KjpKWmp6ipqqusra6voRAAICAQIDBQUEBQYECAMDbQEAAhEDBCESMUEFURNhIgZxgZEy&#xA;obHwFMHR4SNCFVJicvEzJDRDghaSUyWiY7LCB3PSNeJEgxdUkwgJChgZJjZFGidkdFU38qOzwygp&#xA;0+PzhJSktMTU5PRldYWVpbXF1eX1RlZmdoaWprbG1ub2R1dnd4eXp7fH1+f3OEhYaHiImKi4yNjo&#xA;+DlJWWl5iZmpucnZ6fkqOkpaanqKmqq6ytrq+v/aAAwDAQACEQMRAD8A9U4q7FXYq7FXYq7FXYq7&#xA;FXYq7FXYq7FVplUdN8NItYZWPthpja0sT1OFbaxQ7FWwzDvjSbXCVu++Ck2vEqnrtgpNrsCXYq7F&#xA;XYq7FXYq7FXEgdcVUzL4DJUx4lpkc98NItWyDN2KuxV2KuxV2KuxV2KuxV2KrXkC7Dc4QEEqRYnq&#xA;clTG2sUOxV2KuxV2KuxV2KuxVwJHQ4qvErd98FMrXCUdxgpeJv1E8caTbvUTxxpbcZV+eNLawynt&#xA;thpHEsJJ64WLsVdiqIyDY7FXYq7FXYq7FXYq7FXYqtkfiNupwgIJUckwdirsVdirsVdirsVdirsV&#xA;dirsVdirsVdirsVdirsVdirsVdiqIyDY7FXYq7FXYq7FXYq7FXYqoOascmGBaxQ7FXYq7FXYq7FX&#xA;Yq7FXYq7FXYq7FXYq7FXYq7FXYq7FXYq7FURkGx2KuxV2KuxV2KuxV2KuPTFUPk2t2KuxV2KuxV2&#xA;KuxV2KuxV2KuxV2KuxV2KuxV2KuxV2KuxV2KuxVEZBsdirsVdirsVdirsVdirj0xVD5NrdirsVdi&#xA;rsVdirsVdirsVdirsVdirsVdirsVdirsVdirsVdirsVRGQbHYq7FXYq7FXYq7FXYq7FVBxRiMmGB&#xA;axQ7FUu8x6m+leXtU1SNBJJYWk90kbbBjDGzhTTx45OEeKQHeUE0Hk3k3/nIW1vnWDzJEunzseK3&#xA;UQY2rHwYEs8f3keJGZubQkbx3YQyg83sFlqVpeQpLDIrpIA0bowZWB7qw2OYBFNtIrAh2KuxV2Ku&#xA;xV2KuxV2KuxV2KuxV2KuxV2KuxVEZBsdirsVdirsVdirsVdirsVUZPtnJhgVuKEg86yOujAKxUPK&#xA;qvxJFRRjQ0+WCRIFh0nb85R0+xr1D9LCb3WNYl8valo/qC4hvrSe1jMxPOMzRNGCH6kDl0OSxZxx&#xA;Ay6F0Gi7cy4hwz9cft+bB9T/ACdtL/SIz5bvON5Gitdadcts0oTizI9Ay1Pj8J9s3WPV2KPJ6LTa&#xA;zHmFxP62HaP5p88+QNRazYSW6qay6bdAtC4P7Siu1f5kOTyYYZA50Mhjyen6b/zkNKb2BLjSGNqy&#xA;gXFuslbpGJ3aIMFWVfAbN92Yc+zyBz3bfGvo9Y8t+bPL/mSz+t6PeJcxinqINpIye0iGjKfmMwcm&#xA;OUDRDYCDyTfK0uxV2KuxV2KuxV2KuxV2KuxV2KuxV2KojINjsVdirsVdirsVdirsVcTQVxVDk1Nc&#xA;m1uxVjvno00ZD/xev/EWxIsOi9ov8X/zh+lhUVnNLBHLGysZZRCkQqXLH6KDr3OVcLx8NNKURIdZ&#xA;cNdbUJFeObclJk3WRTQjwIYdjkoSMeTWDLHLbYhM4dP07zVp1xYa7bR3iwEBJSOLjmOqstCrbdVz&#xA;Z4cpq3rOydZPNA8XOLzvzb+UGq2Eby6WDrGnLUi2agvIh/kkUEv0Ub2ObLFqwdpu2tjHlbzSfKuu&#xA;x6zJb/X/AEC0UnN3huo+YKsGoQHIHaRT7U646jTCcPSdm2E6L6J8n/mP5d8zW4ewuQ8yists9Enj&#xA;/wBZO4/ylqM0eXDKHNyokS5MrR1deSmo8RlKrsVdirsVdirsVdirsVdirsVdirsVRGQbHYq7FXYq&#xA;7FXYq7FXEgbnFVF35bDpkgGBK3Ch2KpZ5h0g6rprWyyenIGEkbH7PJaijexBwhwe0dH+YxGF0eYe&#xA;d3Vtq+hzsk8Zj5hlV+sbVBXkpG1QG27jJcNvEZcGfSSqQq/l8PP7QhbrUDcJAhjVPQQRh15FmA7s&#xA;WJ+inywcDjZc3GIigOEV7/enHk9LhzfvFuEaLkp71U5kxkIxFvRez2MyjOvL9LJIpBItaUINCD2O&#xA;XO8Y55u/Lvy15ojLXsHpX1KR38FFlHhyPRx7N9FMshkMVt4j5n/Lbzf5Puf0has89pA3KLU7TkrR&#xA;+BkUHlH8+nvmVHJGYosgWfflN+cGsajqtvoOtgSz3Ct9Uv1HFmKKW4yqPhNQpow7/OuYOq0giOKL&#xA;lY8t7F7rE/ONX6VFaZrm0r8UOxV2KuxV2KuxV2KuxV2KuxVEZBsdirTMo6nDSLWGbwGGkcTXqt7Y&#xA;0vE71T4Y0vE4ynsMaXiWliepw0i2sUOxV2KuxVIvPbFPJOvyLtJFp13JG3dXSBmVh7qwqMtw/WPe&#xA;15scZxIkLDzO+s5bKGzlk3ju4I5kc9Kuo5D6GOZHBciA8D2joThy0PpluP1fBmfkXTb60hv3uoWh&#xA;EzJ6YcUJ4KQTTw3ynLIUAHo+wNNkxRlxgxshLvMl3dQ3SrDM0QLMx4mlTXv4/Tmy0cQY7i3R+1Ou&#xA;zYcsPDkY8zspad5mkiol2Ph/36v2f9kO30ZZk0vWPyYdne08ZenOKP8AOHL4hklvd29wgZGBDdN6&#xA;g/I5iEEbF6yE4yFxNgsF1jydoWmefPLWs6dbraT3N3LDcxRDjG9beRw/EbK3w9uuSnMnHIFvw/UH&#xA;rtr/ALzp8s1bmFVxQ7FXYq7FXYq7FXYq7FXYq7FURkGxY8lNh9+SAYkqWFi7FXYq7FXYq7FXYq7F&#xA;XYq7FUh8/f8AKC+Y/wDtl3v/AFDvluH64+8IlyLzvzrB6Xl/QtQF2EJtYrY2soYxGqmQMxQ8lJ4l&#xA;a0+7rl4mRMuFn0UM8Yif8JtHflfF5gAZhO40ROUbWc7CQo/EMj28o2aM+23z65Tkr4ueEs/MvWpN&#xA;PvIUiQGWQOQx6ChHbvmfgzcGPbmXnO0exo6zUAzNRgOQ5mz+xjnl3W5rlHguHLzqeSse6k/wOZel&#xA;y8QIPN5j2l7Gjp5RyYhWOW1dx/aPtBZOranppWUK0Kua8WFUY+BHY/jmLo+1dFriYYskcko9x39/&#xA;mPPcOIMXaHZlSlGUIS7/AKT7+4/IoD8wdau30HStQgdoLiOS6eJ1PxI62VwKqfmNssOLhkYnfl94&#xA;e77N1fj4o5KqwfssPVvIs00/krQJ5naWaXT7V5ZHJZmZoVLMxO5JOarMKmfeXcR5BPMqS7FXYq7F&#xA;XYq7FXYq7FXYq7FVaRqCg6nIgMyVHJMHYq7FXYq7FXYq7FXYq7FXYq7FUh8/f8oL5j/7Zd7/ANQ7&#xA;5bh+uPvCJci8z862V6NN0XUUgmFomnRRS3kQEqKftcJ4jsyGo3NP9l0y6R9R97HH9IRf5f2Gr6T5&#xA;kW1uYprS3u4HlVIyXsp/hBV05H4GpvTc/wCr0yuZBDMN/mN5T1PWGS809RLJal1kt60ZlJBBSuxP&#xA;Xb7syIC4gOIZ8EyTyLzC2mutM1BZGjMdxbv8cTgqag7qwO4yMo7GJ6gj4EMs+GOeHD+LBsfaz7Rf&#xA;Oiavpeo2+qMiXSq0luAOIYH7KqPFWp9H05wOH2Xy6LtLTZNGJGHEBPrQ/jJ8pRv4+8N3bWrxT0Ga&#xA;OavpPD/W/hrz4kp85ty8l6YfF77/AKhLrPUc4/fS/wA39Dz3YH+KQ/zv90Xs35f/APKCeXf+2Zaf&#xA;8mEzSZvrl7y9HHkE/wAqS7FXYq7FXYq7FXYq7FXYq7FVzmrHEJK3FDsVdirsVdirsVdirsVdirsV&#xA;YT+bXn248meWBfWkAmvrqUW1qXBMaMVZi70pWiqaDufauSiLYyNMc8r6x5k1b8l/Ml75imea/ms9&#xA;QkjaRVQ+g9qTGQqhQFJ5U2x0+WMstRP0yFsp45RhchzDKdB17TodO0+wnlUSm2h+A9aNGDTfY5bm&#xA;4TMgH1dycWDL4XicJ8PvZEjRtFWMgpSi8elMpII5oBBShFIklqKVckZm4/pDhZPqKV6/5U0XXYuN&#xA;7D++AolzHRZV/wBl3HsajLLYCwbGxeXa/wCQNe0KQ3dsPrtnHv60QPJRTf1I9yB7ioyWMmEhKPML&#xA;nEM+M48vKX4+Cc3OiHUNH8q6bfiSCO/uriKUL8MipLbXO45A0PFqiozI1eT1ykO4focPsbDwYYwP&#xA;9L/dF7Lo1lb2Gk2djbArb2sKQQqTUhI1CqK/IZpZSs2XeVSMyKuxV2KuxV2KuxV2KuxV2KuxV2Ku&#xA;xV2KuxV2KuxV2KuxV2KuxV2KsJ82y2OtJdaRqFvHdaZUK8D1+JlNeYdSHUg9CpGaLU9p5I5CIcg6&#xA;3LqyJkDkEp1bVNHsfJWt6PDE8c0+m3UUCICyf7zukaDv7DLuyNTGMxxfUZCy5Wo7YhlIiRw7bMd1&#xA;N1DwKRX/AEW22/54pl3aYPjkvf8As6P8Ej75feUTpfm/UNN+FnM9v+0jH4wPZj1+n78s0+tkNp+o&#xA;Mdd7PY83qx/u5+X0n4dPh8mf2063FvHOv2ZAGHyOb0cnz3JExkQeYKt6UpjLqvID9eRlkANFMcZk&#xA;LCik6seLDg/dTkgbYEUwj817m9trXSrixLLeRTXL27IKsHFjOVKjfcHLYAGweW33ssZ3Zz5YvNUH&#xA;lrSRfFvros7f636m7mX0l9Tl78q1zXZK4jXK3MF0m8V+a0kG3iMglFo6OvJTUYFXYq7FXYq7FXYq&#xA;7FXYq7FXEUNMVdirsVdir5r/ADh/NHW382alpOmahdWFvphWG3ks55IC8y8fXEnpkchUsBXpx98n&#xA;GBu+inJAxMSPV0N9b5e6vtenfkbeearvypLL5hvZLuUXDxwC4DGeIRMY3SR2FWPND1rT8BSMwnIg&#xA;chX2i0+HKMQT1v7Nno2TQ7FVNLi3duCSozjqoYE/cMrjmhI0JAn3sRMHkVTLGTTVoabHscTdbKXn&#xA;+s21xZGP14+EkzO3LkGJGw7ZymXTzxgCQo7uk1eIYxHf1Su0oaOKZLi5kYJHZwSXM8jdBFCpdzt4&#xA;DDp8E8h4Y83ChiOQ0OdO1PQIb6CKa1mEV2saxmFgSjqgCqVYA0+EZtBqMeSIMjWQbEUd6+D6J7N9&#xA;qZceERnC8YP1WLHzO/45sb1bSptOt63k8cVw6FltviZyNwOg49vHBDiMq4ZDzO33vaaXWQzn92OK&#xA;IPPanp2jf8cm0/4xL+rOnjyfJ9X/AHs/6x+9H3mrW+k6NPqNyrvBb0aQRircSwUkAkdK1zGyi5M8&#xA;P0tWV3ouvWYu9PnS4iO3NDup60YHdT7HKwTEtkoiXNinmUOnmPyxEx5BNRahPWhtJszBK8cj5fpa&#xA;IR4clMyzBcg83YoXJI6NVDQ4qjYb5W2k+E+PbFKKBBFRuMCuxV2KuxV2KuxV2Kr5BRq+OAJKzCh2&#xA;KuxV8veW/Luha35x8y3+sxyXHo6jI8UQaisZJpHJcdWrQZDV+JwgQIHe6r+V9PhMZ5YylGcbFd+2&#xA;x5M9uNTn065W10a8urKztlBiclA8s0hMk0sikPG9SwX4lO4J75suzOz8csZPm89217VZTkgcBoAb&#xA;gjvPX79j1Z35C8xatrVrdtfrGwtJFhS5iUx+oxQOwKFm3UMu42NegplOqwDHPhBt6LsfXz1WAZJx&#xA;4d/n5sjvTSznNaUjc1/2JzX6o/upf1T9zscn0n3MTsZZP0hbcG/3agNPAsK5ymk2yx/rD73VY5Hj&#xA;Fd7Ms7J3DsVYD+Yd5x1O2t6/Yg9Sn+u7D/jTNR2nE8QNbOh7WyfvBHyv8fJikl0f0Nr6D/dmj6gp&#xA;+Qtnb+GPZET48acfs/J+9rvBZ1oaqNHsSAATbxVI7/AM6fgAJIDtzI1TF57r60np36LeQE1Mco3B&#xA;8VYbjNfHPe0tw8x2b7R6rSz4oyP4/HIsm03VbG5RY4iI2UAel0oBsNsz4yBGzvsGthn3ibPXva8x&#xA;+Z00LS42SNLi7uHIgtJDxEqqV9RVbpy4t8I79gcoyRuTs8P0qPkjW/J13JcrpEY0+/uG53mmuPTc&#xA;SKKEqn2f+B+kDK5g9W1L/Nn/AClflr/tot/1CTZkY/7qX46tR/vGX5iNp5uxQ7FXYqqRXEkR+E7f&#xA;ynpiqOhu45Nvst4HFKvgV2KuxV2KuxVXZeQp92RBZkKBBBockwdiqyZ2SGR1HJlUkKO5ArTFjMkR&#xA;JD5/s9JksPNF3exIUgvYFNwpFKTxMB/wymv35PaQ23D59qMpOEY5ipwl150QmF7pusag0s+nRLcf&#xA;VowZYBIqS8an4lEhVSBXf4q9KA5s9DrsemxkZB6bu3H0vZE9YSMZHGOh6vVfI2kvpXlaxtZQPrBQ&#xA;zXJHeWZjI9D4Vag9s1AzHLeQ/wARJ+HT7H0jFpo4IDFHlAAfr+1MtYlEem3Nf2onHyqKV/HKdV/d&#xA;S/qljn+iXuLC7HUES+tUX7Pqxinj8Qzl9LD97E/0h97psWX1xHmGfqwZQRnXu+bxV5B+aMU9/wCc&#xA;Le0tgWuPRhgiUbEs7sQK/wCzzqOyeGOnJl9NkvA+0JlPWiEfq4Yj5k/rYvpKyLaeYBJXkui6kCG6&#xA;gi2fbfMntCMY4hwgAcUeXvavZ8n81v8AzZPV9BkSTQ9OkjYMjW0JVgaggxihGaGXN7Nh95Dc2kpi&#xA;nQo3avQjxB75rjiILwOfTzxSqQpbYS11C2od+YH3g5dhhRcjs3+/j702/M2/0y38uQwXkcJluJT9&#xA;WmuBSJWQqWUyAhkLqaAgj3IGHIQJWTQfQsAJFBj35dR6FLrkSajI8d/H6cmkpMatty2jnUcZY2Wn&#xA;Gv8AsfHIzJrZsZL5s/5Svy1/20W/6hJstx/3Uvx1aj/eMvzEbTzdih2KuxV2KuxVE211IHVGPJSa&#xA;e4rilMMCuxV2KuxVEZBsWSrUV7jCCghSyTB2KvHfMVwX1u+JXhSZ1CgUoFYqP1ZfixCIoDZ877Uz&#xA;yy6icpc7r4DYMi8haRYX8U1zOretA4QFTQMhAajD5jKdXhEwBL6edPR+y0hATmAOPlfk9AAAFBsB&#xA;0GB6FKPMEksccLxEqQSCR0oR0OSCJJAk/puHiiijkHSRIkVt/cCuRjhgDYAtpjjiDYAB9zLNMLGx&#xA;h5V5cfir1r3wlvCKwK88htPr35sXEjCsdkglof8AJhRB/wAO9c3sp8GhA/nfrePx4/F7XkekBf8A&#xA;sQPvLHdT0S4HmbzPpdqA015ZXyQL2rdwFkH/ACUAy/Lm4tJCR74/YaadHh8PtScf6x/0wv8AS8k8&#xA;p/mP5p8pzfVY3M1lGxWXTbmvFSDRgtfijavhtXqDlc8cZPUEPbfK/wCYflLzhAtqWWC+YfFp1wQH&#xA;rTrE3R/9jv7DMSeIx9zVlwxmOGQsI8eUVi1KG4gmpbo3Jo23YUGwU9/p/HKwAHU4+yBjzCcD6R0Q&#xA;/wCZ3lV/MflgW0Nybe5jcmIE/unJKtSQAE0+DbwzTdrZvDA2+p7HsrHxS9zzn8iNI8xX+o/WkIOj&#xA;6bMjMJxUeo1eSw1BowG7Up79cjopmiDyb9bGNg9XpXmz/lK/LX/bRb/qEmzbY/7qX46urP8AeMvz&#xA;EbTzdih2KuxVYJoi/AOC3hXKI6nGZcIkOJgMkbq1VI3kbigqcvZo63s1jIZjyft4DFKJwK7FXYq7&#xA;FURkGx2Koc9cm1uxV5D55Cx+aL5V2FY2+lolY/icz8IuIeA7ZiBqp15fcGT/AJWknT749vVUV/2O&#xA;VakUQ7z2b/u5+9m+Yr0a2SNJFKuoZT2OFUOumWCtyWFQflja0iQABQbAdBgVvFWKeX4QfOvmKam6&#xA;CBK/661/40zZ6mX+D4x73nuzoXr9RLu4ftH7EJa2yt+aV89K0tQ7eH2I0yycv8CiP6X63Hww/wBd&#xA;5n+hf2RCn55/KLyx5pV53i+p6mR8N7AAHJ7eoOkg/wBbfwIzAw6mUPc9NKAL5885/ld5r8pStNcQ&#xA;m409DVNQtwSo32Lj7UZ+e3gTm1w6mM/e0SgQyXyP+bHmPT7SNNUrq9gDxqTS6jA22dtpPk2/+Vls&#xA;tHxC4tdPd7aC31CwhmbksdwiSohADKGAYVrWhoc5/WQjliYSH48nM0plilxAotEitYhHAojQGtAA&#xA;KkmrE07nvlePGIxERyDZOZkSSw/zYo/xN5YkBqG1FvwtJs2EIkY5X3fpcYSBybMtzCbzzdih2KrZ&#xA;PsN8jleX6D7ixlyKRCRjIvptU1HT5+OcXj2kC6cS32ZsiIi8VFBnbu7XYq7FXYq7FXYqiMg2OxVQ&#xA;b7R+eTDAtYoea+dfK2qXXmGW5tzG63KK6qTxK+mgU1r/AKmWDtHFiqErured1/YGo1GWWWHCYmut&#xA;dAGRfl9pFzp2jyi4ZS88xcBamgChev0ZH83DOOKF15uy7O7NyaSBhkriJvZk7MqipNMi7BQkmYg0&#xA;FB4DqcVS7T9fiuLp7OSKa0vkT1WtLkLyMfLjzRo2kjYV68WPGo5AVGFU2SVH6dfDAq24MwjrEKt3&#xA;+WFWEaNH5tt/NGqTyW0EOmTzgi4eUvNKip8PGNRRaE0PNvkMyMubjhGP81wNLovCy5Ml34hB91I6&#xA;wlhXz1f3UpEYNmisxNFBLL4/6uXzl/g0R/Sddgh/rnkl/tY/R+plqOjorowZGAKsDUEHcEEZgPQL&#xA;ZoIpozHKgdGBBBFdjiry3zh+R2m3bSX3ltxpl61Wa2pW1kPug+x80/4HM/T9oTx7HcNUsQPJmGif&#xA;XItLsob0BbyK3iS5VTVRKqAOAe45VzDyEGRI72YU/MGv6ZommyajqUvo2cbIryBS1DIwRdlBPVt8&#xA;lhgZSACJnYsb1u/sr/VfKF1ZTpc20uoOY5omDKf9Em7jMyYqEvd+lx8P1Bmma5yzzdihVht5JT8I&#xA;ovdj0xVWuYo7ezmYDnJ6b08dl7ZXl+g+5jP6T7mDfX1Tiib7igHU5x8MZMg6AZegeio4YVHyOdm9&#xA;EuxV2KuxV2KuxVEZBscTQE4qh8m1uxVi+r3kTavPxcN9XhaNgCDRmToad/3gzR67fMT3Q+/+13Oj&#xA;j+6HnL8fcnOhoV0uCvVgW/4JiR+GbDQQ4cMXA1pvKVPUbiS3uA1C0TAV26EeB/rma4tpPcafdT3k&#xA;95pmomza6RI7uNoxKPgDAPGCy+nJRqV3Xb7JxTVoiKPTrMs9rCnqkn1Lg1ZmLBQecrcndjwXuTsP&#xA;DFbARljFeyTickqgqPi2qD2C9v14sU3wJUpreOUfEKN/MOuFWH6t+Weh6hr7azfRSXUzIiCItxi+&#xA;DoSqhWPvyYj2yQmQKY8O9sssbU28IjACRqAscSiiqBsAANhkWSJwK7FWMWjyPJczsSVlkYxgnYCp&#xA;O335g6CcpiUidjLZzdcIx4YgbgbpT500mx1ry5d6fe8/q8gVi0RCupRgwIJDDqO4zb6ckTFOl1+o&#xA;8HDLJXFwi6eUeTfy/wBX0Xz7pF1DJ9f0iOaRjOnwtHyiZR6sRJKV2FRVffNhqZ+gg7Fxeze0cOqo&#xA;45e8fxD4fq2e+KrMQqipPbNO7c80bBYgfFLuf5R0xVFAACgFAO2BUt19pFtEaOoZHDcl7bEfxyQQ&#xA;WOi5kEnqqEWU/wC7RGgff/KArgGON3W7Vwi7oWyjRuf6Pj5g8qkknqamtfxxLaEbgS7FXYq7FXYq&#xA;iMg2Kcrfsj6ckAxJU8LFpgCpB6EUxV5p5j/KKW41C71XSNXu7G9vL2G5kSJ6RcB6SSBozyVyAjuv&#xA;ueJ2wThCf1AFMZzh9JIZB5K8teY9Kknn1jWpdTklVY0h4CGCNEJI4RAt8bV+Jq+3bGEIxFR5JlOU&#xA;jcufyZWyqw4sKg9jhYpZc6JGzc4CEPdDuv8ADDaKVbXS44yHmPqSDp/KPYDG00gdb83abpdwtig+&#xA;tak9OFnGQCKio5sdk2+n2zM0+hnkHF9MO9wtTro4zwj1T7mtK846beXH1K6DafqINDaz7VP+Q+wa&#xA;vbxw5tBOA4o+qHeEYNfCZ4Zeifcf0J9mC5zsVdirsVQ99K8VszRrykNFRfdjTMbV5TDGSBcuQ+Ld&#xA;ggJS35JBqqtaPFDGeISJQaeO9TnnPtF2hqdFqhDDMxHhx26XvvR2drpoQzAykL3SDUpLma2mQuTV&#xA;dh0HjlPY/b+pnrcPjTlKHHHblz8hzcbt3QYzoMwgAD4cvs3Y60k1pIjK5DdVdSQQfbPdNNnjqInb&#xA;l0fAp45YZCUSQe8bMq0DzxJEyQXyiRGIX1lADCu3xeOY2o7P6x+T1vZPtXMEY9QLvbiHP4jr8PtZ&#xA;6rBlDDcHcZqXvm8VaZVYUYVB7HFVAafZBuQhXl44VpXAAFAKAdBgVvFXYq7FXYq7FVdmopORDMqG&#xA;SYOxV2KpdqOt2lk/o19W5NKQr2r05HtmHqdbHFtzl3OPm1MYbc5KNt5hi9X0L5DbS9mP2DXpv/mM&#xA;pw9oi+HIOE/YwhqxdS9JTZWVlDKQVIqCNwQc2QNuWC3irsVY35n8kaXrqmVwYrynwzoaN7b7/jmb&#xA;pddkw8vp7nE1Oix5uY370o8v/ltLBex3ut38moS25H1aNqhVCGq1qz1+VaZlajtUyjw44iAPNxsH&#xA;ZgjLimTMjkjvM35l+W9Dke1M63N+h4tBHUhD0pIyhgCPDrmBiwcR9R4Q5Gq1GSEf3UDkl7wB8Sf0&#xA;WwuP8wNW1K4N3BeOgRqBIwUjHenA7N/sq5uMOmwyjURb592pr+0cOYSyS4JHcRidq924PxtmGh/m&#xA;Daz8YdTUQSdBcICYz/rDcr+r5Zh5+ziN4b+TvOzPayE6jqBwy/nD6fj3fd7mXxyRyxrJGweNxVXU&#xA;ggg9wRmsIINF6+ExIAxNgtkA0qK03GRIBZ2x3zAjPfoiirMqgD3JIzyr2wxnJ2hGMecoRA+JLuuz&#xA;yBjJPehPMtgI7pFjAVZowo8KqOP6qZf7RaSOl12Kcdo+j/YED7gEYSc+myQPMiQ/0wYhqFjdWc6w&#xA;38LROrBkruGp4HcMM9RiJQB4TtIEfP8AS+L6nR5MMwJxog2O79Rb1jULOYWbrQXfICQAU+H3+npm&#xA;o9jeytXpM+fGbOkq42f4vLryvi79nb+0PaGn1mLBMADUg1Lbp/b9Pdu9HinkiPwnbuD0zbPblMYJ&#xA;vVj5Up2xVUwK7FXYq7FXYq7FXYq7FVSY9Bgiykp4WLsVdiqR6z5bivS00ZKzHevf/P55jajRwy8+&#xA;fe42fSxyeR70mtPLmt3EnoXM5W0iNVqTX6Aen45hQ7NJNTlcQ4cNDkJqUvSGYWltHbW0dvH9iNQo&#xA;/wAzm0hARFDkHZwgIihyQWoawLR1VY+ZYVrWgp88myXadqouw1UKFSAe436b4qmGBUv16WFNJuY5&#xA;HMfrxtCGU0YGQceQPalcx9VrBpoeKY8XDW3fuzhpjnPhg0ZA7vnLWvK9/psjmnqwKTSVen0+GbLR&#xA;6rDq4g4jUz/AefwPKX3+To49pHFM484qjXEOXxH8P3JXbzvDNGSW4I4YpUgbEVy65R25Fz82HHlg&#xA;TQlxRq/L3vWpfM3lu406SOBldglBAq/ZYjbenEU+eeadl+yfbMO0Y5DLaMwZZPEB4he+18RvfYj3&#xA;04/anbPZ40JxmBHFA8MDAxo131W224Pua8ka3qEOox+kznSyxF0T/ddNuIPVq0+znqXbOp0+GNTP&#xA;7zoB9Xx7h7/g8X7NnUY8gIJGHqOnw8/c9YzUPoyS3611y1r34kfQT/TPPu18d9t4L7on5GX6naac&#xA;/wCDy+LXmmKtrDL3R+P/AAQr/wAa5l+3GG8GPJ1jOvmP+Or2XL1kd4TW7srS8gMF1Es0TdVYV+ke&#xA;B987cEh0+XDDJHhkLDCtZ/LuT1BJpjh05A+hMaMu/VX7ge/45k4dQYGwaeX1vs5ZvEfgenuP4+LM&#xA;ILFV3k+I/wAvbMZ6xFgAbDpgV2KuxV2KuxV2KuxV2KuxVfL1GAMpLMLF2KuxV2KuxV2KsUvrm5iv&#xA;J0BohdmCMAw3NdgwOTAYEqmlXFzNfwhiWjQklQAqioIrQUHfEpBZPkGSnPbwzxlJVDKdiDvglEEU&#xA;eSQSDY5sS1ryi6q0lnR07wt/xqT0+R2zSajsmjxYTwnu6OZOeDUjh1Ed/wCePqHv7/xs821vyjaz&#xA;O/pIba5X7SEU3917fNcy9J7QTgfD1UTKuv8AEPj190vm6PVez+q0n7zTHjxeW4+Mf0x+Ib8t+TQZ&#xA;eDA3szUJgjr6e3QuTT8czs3bczcNJGUb5ylXF8Okffz9zoZ4smsmDkAJjyA5C+88+j1bQfKwtSk1&#xA;5wd0H7uBR+7TwoPbMLT6ARPHM8U/x83oMGijAC9z9nwH4+DI82DmpVfJXWbM+I/VU5xXa2K+2NOf&#xA;6P3cRdjgP7ia3zFLG1iUBqwZTt27Zme2ML0JPdKP6v0sezjWX4JpFNHKvJDUfjnURkCLDglfhQ7F&#xA;XYq7FXYq7FXYq7FXYq7FXYqqyjYHwyIZSUskxdirsVdirsVdiqlLa2828sasfEjCrcVtBD/doF+W&#xA;KqmBXYq7FUt1Ly/pmo8frMIYr0IqD94IOVZdPDJ9QtydPq8uH6JVaJstPs7KIRW0SxqP5QBk4QjE&#xA;UBQaZzM5GUjZKJyTBD314trbSy8GmeNGdYI6c3KioVakCp6CpwqwW2/MbRtX8x2mmLBc2d+fUUW9&#xA;zF6bjihY8tz/AC5pNd2Zkya7BnABhjE+LfvHp+1yMeYDHKPU0jde8jaV5gYvIbi2uyAv1yzlaGQA&#xA;dK0qh/2SnNzOMZx4ZASieh3DjgkbhllpZiEAliWAp4/j3wqicVdirsVdirsVdirsVdirsVdirsVR&#xA;BFRTINiHIINDk2t2KuxV2KuxV2KuxV2KuxV2KuxV2KuxV2KqM9sku/R+xwqhP0LayXEVxcRxyTQc&#xA;vQlKgunMUbixFVqNjTFFI9EVBxUUHhgSuxV2KuxV2KuxV2KuxV2KuxV2KuxV2KojINi105fPCCgh&#xA;RII2OSYOxV2KuxV2KuxV2KuAJ6DFVwjf5YLTS70T448SeF3o++PEvC70ffHiXhaMTY2vCtKMO2G0&#xA;U1ih2KuxV2KuxV2KuxV2KuxV2KuxV2Kr0jJ3OwwEsgFTgnhgtNN4EuxVplDdfvwgoIUzEw6b4bRS&#xA;wgjrhYuxV2KrhGx9vnjaaVFjUdd8jbKl2BLsVdirsVdirsVdirRVT1GNopTaIjpvkgUELMLF2Kux&#xA;V2KuxV2KuxV2KuxVdGnI+wwEpAVsizdirsVdirsVdirsVdQeGKuxV2KuxV2KuxV2KuxV2KuxV2Ku&#xA;xV2KrXQN8/HCCghSIINDkmLWKHYq7FXYq7FXYquRC3y8cSUgKwAAoMgzdirsVdirsVdirsVdirsV&#xA;dirsVdirsVdirsVdirsVdirsVdirsVdiriAeuKqbRHtkrY8Kwqw6jDaKaxQ7FVwRj2xtNL1iA675&#xA;G0gL8DJ2KuxV2Kv/2Q==</xmpGImg:image>
               </rdf:li>
            </rdf:Alt>
         </xmp:Thumbnails>
         <xmpTPg:MaxPageSize rdf:parseType="Resource">
            <stDim:w>924.799988</stDim:w>
            <stDim:h>987.400024</stDim:h>
            <stDim:unit>Pixels</stDim:unit>
         </xmpTPg:MaxPageSize>
         <xmpTPg:NPages>1</xmpTPg:NPages>
         <xmpTPg:HasVisibleTransparency>True</xmpTPg:HasVisibleTransparency>
         <xmpTPg:HasVisibleOverprint>False</xmpTPg:HasVisibleOverprint>
         <xmpTPg:PlateNames>
            <rdf:Seq>
               <rdf:li>Cyan</rdf:li>
               <rdf:li>Magenta</rdf:li>
               <rdf:li>Yellow</rdf:li>
               <rdf:li>Black</rdf:li>
            </rdf:Seq>
         </xmpTPg:PlateNames>
         <xmpTPg:SwatchGroups>
            <rdf:Seq>
               <rdf:li rdf:parseType="Resource">
                  <xmpG:groupName>Default Swatch Group</xmpG:groupName>
                  <xmpG:groupType>0</xmpG:groupType>
               </rdf:li>
            </rdf:Seq>
         </xmpTPg:SwatchGroups>
         <illustrator:CreatorSubTool>Adobe Illustrator</illustrator:CreatorSubTool>
         <dc:format>image/svg+xml</dc:format>
         <xmpMM:RenditionClass>default</xmpMM:RenditionClass>
         <xmpMM:DerivedFrom rdf:parseType="Resource">
            <stRef:instanceID>xmp.iid:e26cee3f-c886-fd43-ab82-c89478bd4126</stRef:instanceID>
            <stRef:documentID>xmp.did:e26cee3f-c886-fd43-ab82-c89478bd4126</stRef:documentID>
            <stRef:originalDocumentID>xmp.did:e26cee3f-c886-fd43-ab82-c89478bd4126</stRef:originalDocumentID>
            <stRef:renditionClass>default</stRef:renditionClass>
         </xmpMM:DerivedFrom>
         <xmpMM:DocumentID>xmp.did:d2fd3e71-50fe-824c-b673-5ac2c3e84cc7</xmpMM:DocumentID>
         <xmpMM:InstanceID>xmp.iid:d2fd3e71-50fe-824c-b673-5ac2c3e84cc7</xmpMM:InstanceID>
         <xmpMM:OriginalDocumentID>xmp.did:e26cee3f-c886-fd43-ab82-c89478bd4126</xmpMM:OriginalDocumentID>
         <xmpMM:History>
            <rdf:Seq>
               <rdf:li rdf:parseType="Resource">
                  <stEvt:action>saved</stEvt:action>
                  <stEvt:instanceID>xmp.iid:e26cee3f-c886-fd43-ab82-c89478bd4126</stEvt:instanceID>
                  <stEvt:when>2021-11-23T15:35:10+01:00</stEvt:when>
                  <stEvt:softwareAgent>Adobe Illustrator 25.0 (Windows)</stEvt:softwareAgent>
                  <stEvt:changed>/</stEvt:changed>
               </rdf:li>
               <rdf:li rdf:parseType="Resource">
                  <stEvt:action>saved</stEvt:action>
                  <stEvt:instanceID>xmp.iid:d2fd3e71-50fe-824c-b673-5ac2c3e84cc7</stEvt:instanceID>
                  <stEvt:when>2021-11-23T15:36:10+01:00</stEvt:when>
                  <stEvt:softwareAgent>Adobe Illustrator 25.0 (Windows)</stEvt:softwareAgent>
                  <stEvt:changed>/</stEvt:changed>
               </rdf:li>
            </rdf:Seq>
         </xmpMM:History>
      </rdf:Description>
   </rdf:RDF>
</x:xmpmeta>
                                                                                                    
                                                                                                    
                                                                                                    
                                                                                                    
                                                                                                    
                                                                                                    
                                                                                                    
                                                                                                    
                                                                                                    
                                                                                                    
                                                                                                    
                                                                                                    
                                                                                                    
                                                                                                    
                                                                                                    
                                                                                                    
                                                                                                    
                                                                                                    
                                                                                                    
                                                                                                    
                           
<?xpacket end="w"?>
	</metadata>
<g>
	<path class="st0" d="M924.8,4.9c-89.3,8.9-113.7,97-318.3,18.4c-129.7-49.8-208.7-6.6-244,7.6C344,38.3,326.6,49.2,312,63.3
		c-35.5,34.3-43.9,87.3-28.9,137l0,0c7.9,26.6,1.7,58.5-19,84.5c-23.3,29.2-58.7,42.9-90.2,38.1c-9.6-1.9-19.5-2.9-29.7-2.9
		C65,320,0,381,0,457.7c0,36.1,14.2,68.9,37.5,93.6C55,570.8,65.9,598.4,65.9,629c0,25.6-7.6,49.1-20.4,67.6
		c-20.1,24.1-32.1,54.1-32.1,86.5C13.4,862.6,84.9,927,173,927c29.3,0,56.8-7.1,80.5-19.6c38.3-18,86.5-28.8,138.9-28.8
		c79.9,0,150,24.9,190,62.5l0,0c31.7,28.5,74.9,46.1,122.6,46.1c65,0,121.8-32.7,152.4-81.4c9.1-12.5,36.2-44.6,67.4-35.7L924.8,4.9
		L924.8,4.9z"/>
	<g>
		<g class="st1">
			<g>
				<path class="st2" d="M633.5,447c-13.7-7.8-35.9-7.5-49.3,0.8L400.3,561.4c-13.4,8.3-13.2,21.5,0.5,29.3l154.4,88.5
					c13.7,7.8,35.9,7.5,49.3-0.8l183.9-113.6c13.4-8.3,13.2-21.5-0.5-29.3L633.5,447z"/>
			</g>
		</g>
		<g>
			<path class="st3" d="M582.6,286.3l-162.8-93.7c-1.9-1.1-3.8-1.5-5.3-1.1c-3.7,0.5-8.3,3.4-13.7,6.2c0,0,0,0-0.1,0
				c-1.7,1-2.8,3.1-2.8,6.1v366.7c0,5.9,4.2,13.2,9.3,16.1L570,680.3c1.7,1,3.3,1.4,4.7,1.2c2.5-0.1,5.7-1.1,9.7-3.1
				c3.4-1.8,5.1-3.2,5.9-4.2c0-0.1,0.1-0.1,0.1-0.2l0,0c0.9-1.1,1.5-2.8,1.5-4.9V302.4C591.9,296.5,587.7,289.3,582.6,286.3z"/>
			<g>
				<g>
					<g>
						<path class="st4" d="M579.4,308.2c0-5.9-4.2-13.2-9.3-16.1l-162.8-93.7c-5.1-2.9-9.3-0.5-9.3,5.4v366.7
							c0,5.9,4.2,13.2,9.3,16.1l162.8,93.7c5.1,2.9,9.3,0.5,9.3-5.4V308.2z"/>
					</g>
				</g>
			</g>
			<g>
				<g>
					<g>
						<path class="st5" d="M475.4,602.6c-2-1.1-3.6-0.2-3.6,2.1v7.5c0,2.3,1.6,5.1,3.6,6.2l19.3,11.1c2,1.1,3.6,0.2,3.6-2.1v-7.5
							c0-2.3-1.6-5.1-3.6-6.2L475.4,602.6z"/>
					</g>
				</g>
			</g>
			<g>
				<g>
					<path class="st6" d="M407,225.2c-2.1-1.2-3.9-0.2-3.9,2.2v321.4c0,2.5,1.7,5.5,3.9,6.7L569.4,649c2.1,1.2,3.9,0.2,3.9-2.2
						V325.3c0-2.5-1.7-5.5-3.9-6.7L407,225.2z"/>
				</g>
			</g>
			<g>
				<g>
					<g>
						<path class="st7" d="M466.6,242.2c-1.5-0.8-2.6-0.1-2.6,1.5v2.6c0,1.7,1.2,3.7,2.6,4.6l45.6,26.2c1.4,0.8,2.6,0.2,2.6-1.5V273
							c0-1.7-1.2-3.7-2.6-4.6L466.6,242.2z"/>
					</g>
				</g>
			</g>
			<g>
				<path class="st8" d="M581.5,459c0,2.1,1.5,3,3.3,1.9l1.4-0.9c1.8-1.1,3.3-3.8,3.3-5.9v-15.3c0-2.1-1.5-3-3.3-1.9l-1.4,0.9
					c-1.8,1.1-3.3,3.8-3.3,5.9V459z"/>
			</g>
			<g>
				<g>
					<g>
						<path class="st8" d="M479.7,229.5c-1.7-1-4.5-0.9-6.2,0.1l-0.3,0.2c-1.7,1-1.7,2.7,0.1,3.7l36.6,21c1.7,1,4.5,0.9,6.2-0.1
							l0.3-0.2c1.7-1,1.7-2.7-0.1-3.7L479.7,229.5z"/>
					</g>
				</g>
			</g>
			<g>
				<path class="st8" d="M581.5,410.7c0,2.1,1.5,3,3.3,1.9l1.4-0.9c1.8-1.1,3.3-3.8,3.3-5.9v-61.3c0-2.1-1.5-3-3.3-1.9l-1.4,0.9
					c-1.8,1.1-3.3,3.8-3.3,5.9V410.7z"/>
			</g>
			
				<ellipse transform="matrix(0.8384 -0.545 0.545 0.8384 -52.0076 262.3411)" class="st7" cx="416.5" cy="218.9" rx="4.3" ry="6.3"/>
			<path class="st7" d="M424.6,227.4c0.5,0.7,1.3,1.1,1.8,0.8s0.5-1.2,0-2s-1.3-1.1-1.8-0.8S424.1,226.6,424.6,227.4z"/>
			<path class="st7" d="M563,306.9c0.7,1.1,1.9,1.6,2.7,1.1s0.8-1.8,0.1-2.9s-1.9-1.6-2.7-1.1S562.2,305.8,563,306.9z"/>
		</g>
		<g>
			<ellipse class="st9" cx="258.6" cy="578.4" rx="27.8" ry="16.1"/>
			<path class="st10" d="M284.2,549.6l-12.3-1l-8.7-0.8l-18,0.6l-11.4,0.8l-1.8,1.2l3.2,26.4l0,0c0,7.3,10.3,13.3,22.9,13.3
				c12.3,0,22.3-5.6,22.9-12.6l0,0L284.2,549.6z"/>
			<path class="st11" d="M284.3,550.1c0,7.6-11.7,13.7-26.1,13.7s-26.1-6.1-26.1-13.7c0-7.6,11.7-13.7,26.1-13.7
				C272.6,536.4,284.3,542.5,284.3,550.1z"/>
			<ellipse class="st12" cx="258.2" cy="550.1" rx="17" ry="8.9"/>
			
				<linearGradient id="SVGID_1_" gradientUnits="userSpaceOnUse" x1="254.871" y1="600.9836" x2="263.5259" y2="642.9135" gradientTransform="matrix(1 0 0 1 0 -90)">
				<stop  offset="0" style="stop-color:#AFF57A"/>
				<stop  offset="1" style="stop-color:#54D169"/>
			</linearGradient>
			<path class="st13" d="M273.4,504.9c-0.2-8.2-6.9-14.9-15.2-14.9c-8.3,0-15,6.6-15.2,14.9l0,0V550l0,0v0.1c0,4.4,6.8,8,15.2,8
				s15.2-3.6,15.2-8V550l0,0V504.9L273.4,504.9L273.4,504.9z"/>
			
				<linearGradient id="SVGID_2_" gradientUnits="userSpaceOnUse" x1="256.5718" y1="588.197" x2="268.2097" y2="630.8693" gradientTransform="matrix(1 0 0 1 0 -90)">
				<stop  offset="0" style="stop-color:#AFF57A"/>
				<stop  offset="1" style="stop-color:#54D169"/>
			</linearGradient>
			<path class="st14" d="M258.2,490c-8.3,0-15,6.6-15.2,14.9l0,0v0.3c1.6,1,3.5,1.9,6.2,3c9.3,3.9,14.3,0,18.8,4
				c1.9,1.7,3.7,3.7,5.4,5.7v-13.1l0,0C273.2,496.6,266.4,490,258.2,490z"/>
			
				<linearGradient id="SVGID_3_" gradientUnits="userSpaceOnUse" x1="256.5079" y1="617.3611" x2="270.2358" y2="656.3072" gradientTransform="matrix(1 0 0 1 0 -90)">
				<stop  offset="0" style="stop-color:#AFF57A"/>
				<stop  offset="1" style="stop-color:#54D169"/>
			</linearGradient>
			<path class="st15" d="M273.4,550.1L273.4,550.1L273.4,550.1v-36.9c-1,4.5-2.8,8.8-9.6,10.7c-12.1,3.4-12.8,11.5-20.6,16.7
				c-0.1,0.1-0.2,0.1-0.3,0.2v9.2l0,0v0.1c0,4.4,6.8,8,15.2,8C266.6,558,273.4,554.5,273.4,550.1z"/>
		</g>
		<g>
			<ellipse class="st9" cx="723.7" cy="669.7" rx="27.8" ry="16.1"/>
			<path class="st10" d="M749.3,640.9l-12.3-1l-8.7-0.8l-18,0.6l-11.4,0.8l-1.8,1.2l3.2,26.4l0,0c0,7.3,10.3,13.3,22.9,13.3
				c12.3,0,22.3-5.6,22.9-12.6l0,0L749.3,640.9z"/>
			<path class="st11" d="M749.3,641.4c0,7.6-11.7,13.7-26.1,13.7c-14.4,0-26.1-6.1-26.1-13.7c0-7.6,11.7-13.7,26.1-13.7
				C737.7,627.7,749.3,633.8,749.3,641.4z"/>
			<path class="st12" d="M740.2,641.4c0,4.9-7.6,8.9-17,8.9s-17-4-17-8.9s7.6-8.9,17-8.9C732.6,632.5,740.2,636.4,740.2,641.4z"/>
			
				<linearGradient id="SVGID_4_" gradientUnits="userSpaceOnUse" x1="719.877" y1="692.3127" x2="728.5319" y2="734.242" gradientTransform="matrix(1 0 0 1 0 -90)">
				<stop  offset="0" style="stop-color:#AFF57A"/>
				<stop  offset="1" style="stop-color:#54D169"/>
			</linearGradient>
			<path class="st16" d="M738.4,596.2c-0.2-8.2-6.9-14.9-15.2-14.9s-15,6.6-15.2,14.9l0,0v45.1l0,0v0.1c0,4.4,6.8,8,15.2,8
				s15.2-3.6,15.2-8v-0.1l0,0V596.2L738.4,596.2z"/>
			
				<linearGradient id="SVGID_5_" gradientUnits="userSpaceOnUse" x1="721.5947" y1="679.526" x2="733.2337" y2="722.2022" gradientTransform="matrix(1 0 0 1 0 -90)">
				<stop  offset="0" style="stop-color:#AFF57A"/>
				<stop  offset="1" style="stop-color:#54D169"/>
			</linearGradient>
			<path class="st17" d="M723.2,581.3c-8.3,0-15,6.6-15.2,14.9l0,0v0.3c1.6,1.1,3.5,1.9,6.2,3c9.3,3.9,14.3,0,18.8,4
				c1.9,1.7,3.7,3.7,5.4,5.7v-13.1l0,0C738.3,588,731.5,581.3,723.2,581.3z"/>
			
				<linearGradient id="SVGID_6_" gradientUnits="userSpaceOnUse" x1="721.6108" y1="708.6692" x2="735.3378" y2="747.6132" gradientTransform="matrix(1 0 0 1 0 -90)">
				<stop  offset="0" style="stop-color:#AFF57A"/>
				<stop  offset="1" style="stop-color:#54D169"/>
			</linearGradient>
			<path class="st18" d="M738.5,641.4L738.5,641.4L738.5,641.4v-36.9c-1,4.5-2.8,8.8-9.6,10.7c-12.1,3.4-12.8,11.5-20.6,16.7
				c-0.1,0.1-0.2,0.1-0.3,0.2v9.2l0,0v0.1c0,4.4,6.8,8,15.2,8C731.6,649.4,738.5,645.8,738.5,641.4z"/>
		</g>
		<g>
			<path class="st9" d="M659.2,729.8l-33.8-19.4c-0.2-0.1-0.4-0.2-0.6-0.3L592,691.4c-3-1.7-7.9-1.6-10.8,0.2l-40.3,24.9
				c-2.9,1.8-2.9,4.7,0.1,6.4l33.8,19.4c0.2,0.1,0.4,0.2,0.6,0.3l32.7,18.7c3,1.7,7.9,1.6,10.8-0.2l40.3-24.9
				C662.2,734.4,662.2,731.5,659.2,729.8z"/>
			<g>
				<path class="st3" d="M619.2,703.2c0-2.1-1.5-4.7-3.3-5.8l-68.8-39.6c-0.7-0.4-1.4-0.5-2-0.4c-1.8,0.4-4.3,2.2-4.3,2.2l0,0
					c-0.6,0.4-0.9,1.1-0.9,2.1v53.8c0,2.1,1.5,4.7,3.3,5.8L612,761c0.6,0.3,1.2,0.5,1.7,0.4c0.6,0,1.3-0.2,2.2-0.7
					c1.7-1,2.5-1.4,2.9-2c0.3-0.4,0.4-1,0.4-1.7L619.2,703.2L619.2,703.2z"/>
				<g>
					<g>
						
							<linearGradient id="SVGID_7_" gradientUnits="userSpaceOnUse" x1="588.0956" y1="777.4698" x2="552.9349" y2="854.8234" gradientTransform="matrix(1 0 0 1 0 -90)">
							<stop  offset="0" style="stop-color:#15EDED"/>
							<stop  offset="1" style="stop-color:#029CF5"/>
						</linearGradient>
						<path class="st19" d="M615.4,705.2c0-2.1-1.5-4.7-3.3-5.7l-68.8-39.6c-1.8-1.1-3.3-0.2-3.3,1.9v53.8c0,2.1,1.5,4.7,3.3,5.8
							L612,761c1.8,1.1,3.3,0.2,3.3-1.9v-53.9H615.4z"/>
					</g>
				</g>
				<path class="st20" d="M586.8,726.8c3.9,6,10.4,8.7,14.4,6c4.1-2.7,4.2-9.7,0.3-15.6c-3.9-6-10.3-8.7-14.4-6
					C583,713.9,582.9,720.9,586.8,726.8z"/>
				
					<linearGradient id="SVGID_8_" gradientUnits="userSpaceOnUse" x1="582.6512" y1="812.5129" x2="567.1485" y2="846.8749" gradientTransform="matrix(1 0 0 1 0 -90)">
					<stop  offset="0" style="stop-color:#46EEAA"/>
					<stop  offset="1" style="stop-color:#2CBFC7"/>
				</linearGradient>
				<path class="st21" d="M615.4,759v-8.7l-15.3-8.6l-14.4-24.6l-7.5,5.9l-15.1-30c0,0-16.1,10.1-23.2,14.4v8.3
					c0,2.1,1.5,4.7,3.3,5.8L612,761C613.9,762,615.4,761.2,615.4,759z"/>
			</g>
		</g>
		<g>
			<g class="st1">
				<path class="st2" d="M160.3,704.6l17.3-10.7c2.2-1.3,2.2-3.4,0.1-4.7L146,670.9c-2.3-1.3-6-1.3-8.2,0.1l-17.3,10.7
					c-2.2,1.3-2.2,3.4-0.1,4.7l31.7,18.3C154.4,706,158.1,706,160.3,704.6z"/>
			</g>
			<g>
				
					<linearGradient id="SVGID_9_" gradientUnits="userSpaceOnUse" x1="187.6618" y1="658.8228" x2="174.6802" y2="612.4175" gradientTransform="matrix(1 0 0 1 0 -90)">
					<stop  offset="0" style="stop-color:#F8A980"/>
					<stop  offset="1" style="stop-color:#FFDF75"/>
				</linearGradient>
				<path class="st22" d="M189.6,528.7c-1.2,3.9-3.8,13-6.6,18.5c-2.7,5.2-6.7,11.1-8.1,10.9c-1.2-0.2-0.3-0.6-1.6-0.4
					c-1.3,0.2-6.5,4.3-5.3,5.3c0,0.1,0,0.1,0,0.1s2.7,2.7,6.6,3.6c0.2,0.1,0.4,0.1,0.6,0.1c0.4,0,0.7-0.1,1-0.4
					c1.7-0.8,11.5-6.3,15.4-25.1c0.1-0.3,1.5-7.7,2.1-15.6C193.7,524.6,190.8,524.8,189.6,528.7z"/>
				<g>
					
						<linearGradient id="SVGID_10_" gradientUnits="userSpaceOnUse" x1="151.881" y1="781.6607" x2="122.3365" y2="688.2518" gradientTransform="matrix(1 0 0 1 0 -90)">
						<stop  offset="0" style="stop-color:#F8A980"/>
						<stop  offset="1" style="stop-color:#FFDF75"/>
					</linearGradient>
					<path class="st23" d="M136.3,633c0.1,0.3,0.9,9-1.6,25.1s-2.6,16.8-2.9,19.9c-0.1,2.1,3.6,4.2,6.7,5.2c3.1,1,9.7,1.6,12.6-1.4
						c1.1-2.1-0.6-3.1-0.6-3.1s-2.9,0.3-4.2,0.3c-1-0.1-4.2-0.3-3.9-1.8s3.6-19.2,4.4-28.6c0.8-9.3,1.3-19.1,1.3-19.1l-2-4.6
						l-12.1-1.5L136.3,633z"/>
					<path class="st24" d="M154.7,679.3c-1.9-1-4.4-0.8-4.4-0.8s-1.1,0.2,0.3,1.1c0.8,0.3,1.2,3.1-3.4,3.7c-3.9,0.6-4.9,0.5-7-0.1
						h-0.1c-7.8-2.2-7.6-7.6-8.4-6.7c-1.1,1.2-2.2,2.2-2.2,4.8c0,1.3,0.2,2.8,0.8,3.9c0.9,2,1.4,5.1,1.5,5.1v2.7
						c0,0.6,0.4,0.9,1,0.9s1.2-0.2,1.2-0.9v-3.4c0.2-1.8,0.8-3.1,0.8-3.1s0.7-1.5,1.7-0.1c1,1.5,2.5,3.9,5.8,3.9
						c3.4,0,5.7-1.2,9.6-4C156,683.4,156.7,680.3,154.7,679.3z"/>
				</g>
				<g>
					
						<linearGradient id="SVGID_11_" gradientUnits="userSpaceOnUse" x1="167.1066" y1="786.2838" x2="137.5626" y2="692.8764" gradientTransform="matrix(1 0 0 1 0 -90)">
						<stop  offset="0" style="stop-color:#F8A980"/>
						<stop  offset="1" style="stop-color:#FFDF75"/>
					</linearGradient>
					<path class="st25" d="M151.5,637.7c0.1,0.3,0.9,9-1.6,25.1s-2.6,16.7-2.9,19.9c-0.1,2.1,3.6,4.2,6.7,5.2
						c3.1,1,9.7,1.6,12.6-1.4c1.1-2.1-0.6-3.1-0.6-3.1s-2.9,0.3-4.1,0.3c-1-0.1-4.2-0.3-3.9-1.8c0.4-1.5,3.6-19.2,4.4-28.6
						c0.8-9.3,1.3-19.1,1.3-19.1l-2-4.6l-12.1-1.5L151.5,637.7z"/>
					<path class="st24" d="M169.9,683.9c-1.9-1-4.4-0.8-4.4-0.8s-1.1,0.2,0.3,1.1c0.8,0.3,1.2,3.1-3.4,3.8c-3.9,0.6-5,0.5-7-0.1
						h-0.1c-7.8-2.2-7.6-7.6-8.4-6.7c-1.1,1.2-2.2,2.2-2.2,4.8c0,1.3,0.2,2.8,0.8,3.9c0.9,2,1.4,5.1,1.5,5.1v2.7
						c0,0.6,0.4,0.9,1,0.9s1.2-0.2,1.2-0.9v-3.5c0.2-1.8,0.8-3.1,0.8-3.1s0.7-1.5,1.7-0.1c1,1.5,2.5,3.9,5.8,3.9
						c3.4,0,5.7-1.2,9.6-4C171.2,688,171.9,684.9,169.9,683.9z"/>
				</g>
				
					<linearGradient id="SVGID_12_" gradientUnits="userSpaceOnUse" x1="131.1386" y1="644.0844" x2="120.3942" y2="644.5693" gradientTransform="matrix(1 0 0 1 0 -90)">
					<stop  offset="0" style="stop-color:#F8A980"/>
					<stop  offset="1" style="stop-color:#FFDF75"/>
				</linearGradient>
				<path class="st26" d="M136.5,554.9c0,3.7,7.7,6.7-6.3,6.7c-3.5,0-5.8-3-6.5-6.7c-2.5-12.6,3-6.7,6.5-6.7
					C133.6,548.2,136.5,551.2,136.5,554.9z"/>
				
					<linearGradient id="SVGID_13_" gradientUnits="userSpaceOnUse" x1="115.7347" y1="621.0565" x2="130.7307" y2="620.6088" gradientTransform="matrix(1 0 0 1 0 -90)">
					<stop  offset="0" style="stop-color:#46EEAA"/>
					<stop  offset="1" style="stop-color:#2CBFC7"/>
				</linearGradient>
				<path class="st27" d="M137.9,536.9c0-1-3.9-14.8-3.9-15s-1.4-3.2-2.2-4.8c0.7-3.6,8.5-11.5-1.4-8c-3.6,1.3-4.8,3.2-5.8,7.3
					c-0.5,1.9-0.6,3.7-0.4,5.1c0.2,1.1,0.2,9.3-1.1,16c-1.4,6.9-2.3,12.5,0.3,14.1c2.6,1.6,5.9,1.4,8.3,1.2c2.4-0.2,8-2.6,8-2.6
					S137.9,537.9,137.9,536.9z"/>
				
					<linearGradient id="SVGID_14_" gradientUnits="userSpaceOnUse" x1="116.1774" y1="593.0279" x2="169.8946" y2="715.9807" gradientTransform="matrix(1 0 0 1 0 -90)">
					<stop  offset="0" style="stop-color:#46EEAA"/>
					<stop  offset="1" style="stop-color:#2CBFC7"/>
				</linearGradient>
				<path class="st28" d="M164.7,564.2c-2.5-4.1-2.5-4-2.5-6.5s0.1-10.4,1-17.1c0.8-6.7,3.1-8.7,2.7-13.6c-0.4-4.9,0-9.3-8.9-13.1
					c-4-1-13.9-5.3-17.4-5.6c-0.9-0.3-1.9-0.4-3-0.4c-4.4,0-8.1,2.4-9,5.7c-2,5.2-0.2,12.5,0.3,21.3c0.6,9.2,4.6,21.5,4.9,22.5
					c0.2,1,0.8,2.1-0.2,3.2c-4.2,4.9-5.2,11.9-5.2,11.9s0,0.1,0,0.2c-0.2,1.2-0.3,2.5-0.3,3.8c0,0.7,0,1.4,0.1,2.1
					c0,2.3,0.9,4.3,3.1,11.6c2.6,12.4,0.8,40.2,0.8,40.2c0,4.2,8,7.7,17.8,7.7s17.8-3.4,17.8-7.7c0,0,0.2-40,0.4-45.7
					C167.3,578.9,167.3,568.3,164.7,564.2z"/>
				<path class="st24" d="M185.6,546.2c-0.5,1.4-2.1,2.1-3.5,1.5l-24.8-9.7c-1.4-0.5-2.1-2.1-1.5-3.5l13.5-34.5
					c0.5-1.4,2.1-2.1,3.5-1.5l24.8,9.7c1.4,0.5,2.1,2.1,1.5,3.5L185.6,546.2z"/>
				
					<linearGradient id="SVGID_15_" gradientUnits="userSpaceOnUse" x1="177.9974" y1="591.5079" x2="176.5426" y2="644.3293" gradientTransform="matrix(1 0 0 1 0 -90)">
					<stop  offset="0" style="stop-color:#15EDED"/>
					<stop  offset="1" style="stop-color:#029CF5"/>
				</linearGradient>
				<polygon class="st29" points="183.1,545.3 183.1,545.3 183.1,545.3 158.3,535.6 171.7,501.1 196.5,510.8 				"/>
				
					<linearGradient id="SVGID_16_" gradientUnits="userSpaceOnUse" x1="153.1836" y1="616.5099" x2="182.1693" y2="651.8749" gradientTransform="matrix(1 0 0 1 0 -90)">
					<stop  offset="0" style="stop-color:#46EEAA"/>
					<stop  offset="1" style="stop-color:#2CBFC7"/>
				</linearGradient>
				<path class="st30" d="M172.7,554c0,0-1.5-3.2-3.8-8c-2.4-5-4.6-10.1-3.8-13.3c0.5-2.3,0.7-5,0.8-6.4c0-0.3,0-0.7,0-1
					c0-5.2-3.3-9.4-7.3-9.4c-3.9,0-7,3.9-7.3,8.8l0,0c-0.7,7,4.2,18.4,5.9,21.3c1.7,2.9,5.5,11.6,6.3,13.5c0.8,1.8,3.3,4.2,5.1,4.6
					c1.8,0.4,4.7-3.7,5.7-5.2C175,557.8,172.7,554,172.7,554z"/>
				<g>
					
						<linearGradient id="SVGID_17_" gradientUnits="userSpaceOnUse" x1="150.2998" y1="604.0396" x2="142.1846" y2="585.7944" gradientTransform="matrix(1 0 0 1 0 -90)">
						<stop  offset="0" style="stop-color:#F8A980"/>
						<stop  offset="1" style="stop-color:#FFDF75"/>
					</linearGradient>
					<path class="st31" d="M153.7,504.1l-0.5-0.8l-2.4-2.3l-5-0.3l-3.9,0.9c0,0,0.5,1.1,0.3,3.8c-0.3,2.7-0.7,3.8-0.9,4.2
						c-0.1,0.2-0.2,0.3-0.3,0.5c-0.3,1.4,1.9,3,4.9,3.6s5.6-0.1,5.8-1.5c0-0.1,0-0.3,0-0.4c0-0.4,0.1-1.1,0.1-2.2
						C152.2,506.3,153.7,504.1,153.7,504.1z"/>
					
						<linearGradient id="SVGID_18_" gradientUnits="userSpaceOnUse" x1="155.3587" y1="597.7548" x2="155.6945" y2="554.5564" gradientTransform="matrix(1 0 0 1 0 -90)">
						<stop  offset="0" style="stop-color:#F8A980"/>
						<stop  offset="1" style="stop-color:#FFDF75"/>
					</linearGradient>
					<path class="st32" d="M167.2,479c0.1,1.4,0.2,6.9,0.2,8.4c0,8.7-2.5,15.1-6.8,16.3c-13.7,3.6-17-3.5-17-12.1
						s15.8-19.8,18.6-19.8C164.6,471.7,166.6,472.5,167.2,479z"/>
					
						<linearGradient id="SVGID_19_" gradientUnits="userSpaceOnUse" x1="144.2219" y1="560.256" x2="155.114" y2="590.3224" gradientTransform="matrix(1 0 0 1 0 -90)">
						<stop  offset="0" style="stop-color:#2C4755"/>
						<stop  offset="1" style="stop-color:#334752"/>
					</linearGradient>
					<path class="st33" d="M167.6,476.4c0,0.8-0.1,3.3-0.8,3.3c-3.4-0.1-6,1.5-4.9,5.6c0.7,2.9-0.1,8-3.5,15.5
						c-1,2.1,1.3,5.5-0.2,5.5c-0.5,0-1.7-0.6-1.8-3.7c0-4,2-7,2.2-8c2.2-8.1-4-7.1-4.9-5.7c-1.3,2-3.5,4.5,0.2,8
						c3,2.9-5.3,7.1-7.7,6.4c-6.4-1.8-6.5,1.4-7.6,2.8c-5.8,7.3-4.7-24.2-4.7-29.8s6.3-9.7,15.7-9.7
						C158.8,466.7,167.6,470.7,167.6,476.4z"/>
					
						<linearGradient id="SVGID_20_" gradientUnits="userSpaceOnUse" x1="133.6104" y1="564.905" x2="151.0696" y2="579.0814" gradientTransform="matrix(1 0 0 1 0 -90)">
						<stop  offset="0" style="stop-color:#FF7C6E"/>
						<stop  offset="1" style="stop-color:#F5317F"/>
					</linearGradient>
					<path class="st34" d="M145.7,479.2c0,4.2-3,7.6-6.8,7.6s-6.8-3.4-6.8-7.6s3-7.6,6.8-7.6S145.7,475,145.7,479.2z"/>
					
						<linearGradient id="SVGID_21_" gradientUnits="userSpaceOnUse" x1="134.6284" y1="584.0391" x2="139.1048" y2="612.6884" gradientTransform="matrix(1 0 0 1 0 -90)">
						<stop  offset="0" style="stop-color:#2C4755"/>
						<stop  offset="1" style="stop-color:#334752"/>
					</linearGradient>
					<path class="st35" d="M142.2,492c1.1-9.1,1.2-10.5,0.9-12l0,0c-0.4-3.1-2.7-5.5-5.5-5.5s-4.3,2.5-5.5,5.4l0,0
						c0,0-6.4,15-5.1,29.8c1.3,14.8,1.1,15.6,8.5,28.5c3,6.2,3.3,6.8,3.1,9.2c-0.1,2.4,1.8,3.7,2.2-1.3c0.4-4.9,0.7-11-2.6-21
						c-1.9-6-1.5-11.4-0.4-15.9C139,504.7,140.6,500.8,142.2,492z"/>
				</g>
			</g>
		</g>
		<g>
			<g class="st1">
				<g>
					<path class="st2" d="M524.4,447c-2.6-1.5-4.7-0.3-4.7,2.7v119.9c0,3,2.1,6.6,4.7,8.1l42.6,24.5c2.6,1.5,4.7,0.3,4.7-2.7V479.6
						c0-3-2.1-6.6-4.7-8.1L524.4,447z"/>
				</g>
			</g>
			<g>
				<path class="st3" d="M558.8,477.2l-42.6-24.5c-1.3-0.7-2.5-0.8-3.3-0.3c-4.2,1.7-6,2.8-6.6,3.2c-0.9,0.5-1.4,1.5-1.4,3v119.9
					c0,3,2.1,6.6,4.7,8l42.6,24.5c0.7,0.4,1.3,0.6,1.9,0.6c0.3,0,2.1,0.2,5.1-1.7c1.6-1,2.4-1.5,2.9-1.8c0.1-0.1,0.2-0.1,0.3-0.2
					l0,0l0,0c0.7-0.5,1.2-1.5,1.2-2.9V485.3C563.4,482.3,561.3,478.7,558.8,477.2z"/>
				<g>
					<g>
						<path class="st11" d="M509.4,455.9c-2.6-1.5-4.7-0.3-4.7,2.7v119.9c0,3,2.1,6.6,4.7,8L552,611c2.6,1.5,4.7,0.3,4.7-2.7V488.5
							c0-3-2.1-6.6-4.7-8L509.4,455.9z"/>
					</g>
				</g>
				<g>
					<polygon class="st36" points="518.1,491.1 537.5,502.3 537.5,492.7 518.1,481.5 					"/>
					<polygon class="st36" points="549.5,534.8 549.5,525.1 516,505.9 516,515.5 					"/>
					<polygon class="st36" points="540.2,533.3 510.4,516.1 510.4,525.7 540.2,542.9 					"/>
					<polygon class="st36" points="516,542.5 549.5,561.8 549.5,552.2 516,532.9 					"/>
					<polygon class="st36" points="510.4,552.7 549.5,575.3 549.5,565.7 510.4,543.1 					"/>
					<polygon class="st36" points="510.4,556.6 510.4,566.2 529.7,577.4 529.7,567.7 					"/>
				</g>
			</g>
		</g>
		<g>
			<g class="st1">
				<g>
					<path class="st2" d="M427.8,272.4c-2.6-1.5-4.7-0.3-4.7,2.7V395c0,3,2.1,6.6,4.7,8.1l42.6,24.5c2.6,1.5,4.7,0.3,4.7-2.7V305
						c0-3-2.1-6.6-4.7-8.1L427.8,272.4z"/>
				</g>
			</g>
			<g>
				<path class="st3" d="M462.2,302.6l-42.6-24.5c-1.3-0.7-2.5-0.8-3.3-0.3c-4.2,1.7-6,2.8-6.6,3.2c-0.9,0.5-1.4,1.5-1.4,3v119.9
					c0,3,2.1,6.6,4.7,8.1l42.6,24.5c0.7,0.4,1.3,0.6,1.9,0.6c0.3,0,2.1,0.2,5.1-1.7c1.6-1,2.4-1.5,2.9-1.8c0.1-0.1,0.2-0.1,0.3-0.2
					l0,0l0,0c0.7-0.5,1.2-1.5,1.2-2.9V310.7C466.9,307.7,464.8,304.1,462.2,302.6z"/>
				<g>
					<g>
						<path class="st11" d="M412.9,281.3c-2.6-1.5-4.7-0.3-4.7,2.7v119.9c0,3,2.1,6.6,4.7,8.1l42.6,24.5c2.6,1.5,4.7,0.3,4.7-2.7
							V313.9c0-3-2.1-6.6-4.7-8.1L412.9,281.3z"/>
					</g>
				</g>
				<g>
					<polygon class="st36" points="421.5,316.5 441,327.7 441,318.1 421.5,306.9 					"/>
					<polygon class="st36" points="453,360.2 453,350.6 419.5,331.3 419.5,340.9 					"/>
					<polygon class="st36" points="443.7,358.7 413.8,341.5 413.8,351.2 443.7,368.3 					"/>
					<polygon class="st36" points="419.5,367.9 453,387.2 453,377.6 419.5,358.3 					"/>
					<polygon class="st36" points="413.8,378.2 453,400.7 453,391.1 413.8,368.5 					"/>
					<polygon class="st36" points="413.8,382 413.8,391.7 433.2,402.8 433.2,393.2 					"/>
				</g>
			</g>
		</g>
		<g>
			<path class="st9" d="M569,421.2c0.1,0,0.2,0,0.3,0.1c0.1,0,0.2,0,0.4,0c0.1,0,0.1,0,0.2,0c0.1,0,0.2-0.1,0.3-0.1
				c0.7-0.3,1.1-1,1.1-2.2v-64.1c0-2-1.5-4.6-3.2-5.6l-72.5-41.7c-1-0.6-2-0.5-2.6,0c-0.1,0.1-0.1,0.1-0.2,0.2s-0.1,0.2-0.2,0.2
				c0,0.1-0.1,0.1-0.1,0.2s-0.1,0.2-0.1,0.4c0,0.1,0,0.1-0.1,0.2c0,0.2-0.1,0.4-0.1,0.7v64.1c0,2,1.5,4.6,3.2,5.6L535,402l0,0
				l20,11.5l0,0l6.3,3.6l0.2,0.1l6.4,3.7c0.2,0.1,0.4,0.2,0.6,0.3C568.8,421.2,568.9,421.2,569,421.2z"/>
			<g>
				<g>
					
						<linearGradient id="SVGID_22_" gradientUnits="userSpaceOnUse" x1="547.684" y1="387.6058" x2="496.6524" y2="522.7946" gradientTransform="matrix(1 0 0 1 0 -90)">
						<stop  offset="0" style="stop-color:#15EDED"/>
						<stop  offset="1" style="stop-color:#029CF5"/>
					</linearGradient>
					<path class="st37" d="M559.2,354.8l-72.5-41.7c-0.7-0.4-1.3-0.5-1.9-0.4c-0.3,0-0.7,0.3-3.2,1.3c-1.9,0.8-2.8,1.5-3.2,1.8
						c-0.5,0.4-0.8,1-0.8,2v64.1c0,2,1.5,4.6,3.2,5.6l61,35.1l5.1,2.9l6.4,3.7c0.9,0.5,1.7,0.5,2.2,0.2c0.4-0.1,1-0.3,2.1-0.7
						c2.1-0.7,3.2-1.6,3.8-2.2c0.5-0.4,0.9-1.1,0.9-2v-64.1C562.4,358.4,561,355.9,559.2,354.8z"/>
				</g>
				
					<linearGradient id="SVGID_23_" gradientUnits="userSpaceOnUse" x1="524.2858" y1="429.3076" x2="504.1418" y2="523.7608" gradientTransform="matrix(1 0 0 1 0 -90)">
					<stop  offset="0" style="stop-color:#15EDED"/>
					<stop  offset="1" style="stop-color:#029CF5"/>
				</linearGradient>
				<path class="st38" d="M554.4,429.6c0.1,0,0.2,0,0.3,0.1c0.1,0,0.2,0,0.4,0c0.1,0,0.1,0,0.2,0c0.1,0,0.2-0.1,0.3-0.1
					c0.7-0.3,1.1-1,1.1-2.2v-64.1c0-2-1.5-4.6-3.2-5.6L481,316c-1-0.6-2-0.5-2.6,0c-0.1,0.1-0.1,0.1-0.2,0.2s-0.1,0.2-0.2,0.2
					c0,0.1-0.1,0.1-0.1,0.2s-0.1,0.2-0.1,0.4c0,0.1,0,0.1-0.1,0.2c0,0.2-0.1,0.4-0.1,0.7V382c0,2,1.5,4.6,3.2,5.6l39.6,22.8l0,0
					l20,11.5l0,0l6.3,3.6l0.2,0.1l6.4,3.7c0.2,0.1,0.4,0.2,0.6,0.3C554.2,429.5,554.3,429.5,554.4,429.6z"/>
				<path class="st20" d="M526.7,387.6c5.4,8.4,14.5,12.2,20.2,8.4c5.7-3.7,5.9-13.5,0.5-21.9s-14.5-12.2-20.2-8.5
					C521.4,369.4,521.2,379.2,526.7,387.6z"/>
				<path class="st36" d="M552.2,412.9l-20.1-34.5l-10.4,8.2l-21.2-42.1c0,0-12.4,7.8-22.8,14.2v23.1c0,2,1.5,4.6,3.2,5.6l39.6,22.8
					l0,0l20,11.5l0,0l6.3,3.6l0.2,0.1l6.4,3.7c0.2,0.1,0.4,0.2,0.6,0.3c0.1,0,0.2,0,0.3,0.1c0.1,0,0.2,0,0.3,0.1c0.1,0,0.2,0,0.4,0
					c0.1,0,0.1,0,0.2,0c0.1,0,0.2-0.1,0.3-0.1c0.7-0.3,1.1-1,1.1-2.2v-12L552.2,412.9z"/>
			</g>
		</g>
		<g>
			<path class="st9" d="M491.5,567.8c0.1,0,0.1,0,0.2,0s0.2,0,0.2,0h0.1c0.1,0,0.1,0,0.2-0.1c0.4-0.2,0.7-0.7,0.7-1.4v-40.6
				c0-1.3-0.9-2.9-2-3.5L445,495.8c-0.7-0.4-1.2-0.3-1.6,0l-0.1,0.1l-0.1,0.1l-0.1,0.1c0,0.1-0.1,0.1-0.1,0.2v0.1c0,0.1,0,0.3,0,0.4
				v40.6c0,1.3,0.9,2.9,2,3.5l25.1,14.4l0,0l12.6,7.3l0,0l4,2.3l0.1,0.1l4,2.3c0.1,0.1,0.3,0.1,0.4,0.2
				C491.4,567.8,491.4,567.8,491.5,567.8z"/>
			<g>
				<g>
					
						<linearGradient id="SVGID_24_" gradientUnits="userSpaceOnUse" x1="460.7397" y1="558.8103" x2="460.3615" y2="646.5029" gradientTransform="matrix(1 0 0 1 0 -90)">
						<stop  offset="0" style="stop-color:#46EEAA"/>
						<stop  offset="1" style="stop-color:#2CBFC7"/>
					</linearGradient>
					<path class="st39" d="M485.3,525.7l-45.9-26.4c-0.4-0.2-0.8-0.3-1.2-0.2c-0.2,0-0.4,0.2-2,0.8c-1.2,0.5-1.8,0.9-2,1.1
						c-0.3,0.2-0.5,0.7-0.5,1.2v40.6c0,1.3,0.9,2.9,2,3.5l38.6,22.2l3.3,1.9l4,2.3c0.5,0.3,1,0.3,1.4,0.2c0.2-0.1,0.6-0.2,1.3-0.4
						c1.3-0.5,2.1-1,2.4-1.4c0.3-0.2,0.5-0.7,0.5-1.3v-40.6C487.3,528,486.4,526.4,485.3,525.7z"/>
				</g>
				
					<linearGradient id="SVGID_25_" gradientUnits="userSpaceOnUse" x1="453.3927" y1="602.6865" x2="473.0479" y2="693.0242" gradientTransform="matrix(1 0 0 1 0 -90)">
					<stop  offset="0" style="stop-color:#46EEAA"/>
					<stop  offset="1" style="stop-color:#2CBFC7"/>
				</linearGradient>
				<path class="st40" d="M482.2,573.1c0.1,0,0.1,0,0.2,0s0.2,0,0.2,0h0.1c0.1,0,0.1,0,0.2-0.1c0.4-0.2,0.7-0.7,0.7-1.4V531
					c0-1.3-0.9-2.9-2-3.5l-45.9-26.4c-0.7-0.4-1.2-0.3-1.6,0l-0.1,0.1l-0.1,0.1l-0.1,0.1c0,0.1,0,0.1-0.1,0.2v0.1c0,0.1,0,0.3,0,0.4
					v40.6c0,1.3,0.9,2.9,2,3.5l25.1,14.4l0,0l12.6,7.3l0,0l4,2.3l0.1,0.1l4,2.3c0.1,0.1,0.3,0.1,0.4,0.2
					C482.1,573,482.2,573.1,482.2,573.1z"/>
			</g>
		</g>
		<g>
			<path class="st9" d="M468.7,493.9c0.1,0,0.1,0,0.2,0s0.2,0,0.2,0h0.1c0.1,0,0.1,0,0.2-0.1c0.4-0.2,0.7-0.7,0.7-1.4v-40.6
				c0-1.3-0.9-2.9-2-3.5l-46-26.3c-0.7-0.4-1.2-0.3-1.6,0l-0.1,0.1l-0.1,0.1l-0.1,0.1c0,0.1,0,0.1-0.1,0.2v0.1c0,0.1,0,0.3,0,0.4
				v40.6c0,1.3,0.9,2.9,2,3.5l25.1,14.4l0,0l12.6,7.3l0,0l4,2.3l0.1,0.1l4,2.3c0.1,0.1,0.3,0.1,0.4,0.2
				C468.5,493.9,468.6,493.9,468.7,493.9z"/>
			<g>
				<g>
					
						<linearGradient id="SVGID_26_" gradientUnits="userSpaceOnUse" x1="437.9398" y1="484.9467" x2="437.5616" y2="572.6404" gradientTransform="matrix(1 0 0 1 0 -90)">
						<stop  offset="0" style="stop-color:#FF7C6E"/>
						<stop  offset="1" style="stop-color:#F5317F"/>
					</linearGradient>
					<path class="st41" d="M462.5,451.9l-45.9-26.4c-0.4-0.2-0.8-0.3-1.2-0.2c-0.2,0-0.4,0.2-2,0.8c-1.2,0.5-1.8,0.9-2,1.1
						c-0.3,0.2-0.5,0.7-0.5,1.2V469c0,1.3,0.9,2.9,2,3.5l38.6,22.2l3.3,1.9l4,2.3c0.5,0.3,1,0.3,1.4,0.1c0.2-0.1,0.6-0.2,1.3-0.4
						c1.3-0.5,2.1-1,2.4-1.4c0.3-0.2,0.5-0.7,0.5-1.3v-40.6C464.5,454.1,463.6,452.5,462.5,451.9z"/>
				</g>
				
					<linearGradient id="SVGID_27_" gradientUnits="userSpaceOnUse" x1="430.5788" y1="528.8226" x2="450.2342" y2="619.1613" gradientTransform="matrix(1 0 0 1 0 -90)">
					<stop  offset="0" style="stop-color:#FF7C6E"/>
					<stop  offset="1" style="stop-color:#F5317F"/>
				</linearGradient>
				<path class="st42" d="M459.4,499.2c0.1,0,0.1,0,0.2,0s0.2,0,0.2,0h0.1c0.1,0,0.1,0,0.2-0.1c0.4-0.2,0.7-0.6,0.7-1.4v-40.6
					c0-1.3-0.9-2.9-2-3.5l-45.9-26.4c-0.7-0.4-1.2-0.3-1.6,0l-0.1,0.1l-0.1,0.1l-0.1,0.1c0,0.1-0.1,0.1-0.1,0.2v0.1
					c0,0.1,0,0.3,0,0.4V469c0,1.3,0.9,2.9,2,3.5L438,487l0,0l12.6,7.3l0,0l4,2.3l0.1,0.1l4,2.3c0.1,0.1,0.3,0.1,0.4,0.2
					C459.3,499.2,459.3,499.2,459.4,499.2z"/>
			</g>
		</g>
		<g>
			<g>
				
					<linearGradient id="SVGID_28_" gradientUnits="userSpaceOnUse" x1="449.9061" y1="278.0493" x2="401.1472" y2="369.5226" gradientTransform="matrix(1 0 0 1 0 -90)">
					<stop  offset="0" style="stop-color:#46EEAA"/>
					<stop  offset="1" style="stop-color:#2CBFC7"/>
				</linearGradient>
				<path class="st43" d="M442.5,259.3L370,217.6c-0.7-0.4-1.3-0.5-1.9-0.4c-0.3,0-0.7,0.3-3.2,1.3c-2,0.8-2.8,1.5-3.2,1.8
					c-0.5,0.4-0.8,1-0.8,2v64.1c0,2,1.5,4.6,3.2,5.6l48.6,28l11,31l6.5-3.3V330l6.4,3.7c0.9,0.5,1.7,0.5,2.2,0.2
					c0.4-0.1,1-0.3,2.1-0.7c2.1-0.7,3.2-1.6,3.8-2.2c0.5-0.4,0.9-1.1,0.9-2v-64.1C445.7,262.9,444.3,260.4,442.5,259.3z"/>
				
					<linearGradient id="SVGID_29_" gradientUnits="userSpaceOnUse" x1="403.1321" y1="337.9115" x2="390.522" y2="475.3782" gradientTransform="matrix(1 0 0 1 0 -90)">
					<stop  offset="0" style="stop-color:#46EEAA"/>
					<stop  offset="1" style="stop-color:#2CBFC7"/>
				</linearGradient>
				<path class="st44" d="M436.7,262.2l-72.5-41.7c-1.8-1-3.2-0.2-3.2,1.9v64.1c0,2,1.5,4.6,3.2,5.6l39.6,22.8l20,36.3v-24.8
					l12.9,7.4c1.8,1,3.2,0.2,3.2-1.9v-64.1C439.9,265.7,438.5,263.2,436.7,262.2z"/>
			</g>
			<g>
				<path class="st45" d="M389.1,280.9l-7.6-9.6c-0.3-0.3-0.4-0.6-0.5-0.8c-0.1-0.2-0.2-0.5-0.2-0.7v-0.5c0-0.2,0.1-0.4,0.2-0.6
					c0.1-0.1,0.3-0.2,0.5-0.3l7.6-1.6c0,0,0.1,0,0.2,0s0.2,0,0.3,0.1c0.1,0.1,0.3,0.2,0.4,0.3c0.1,0.1,0.1,0.3,0.1,0.5v1.1
					c0,0.2,0,0.3-0.1,0.4s-0.2,0.1-0.4,0.2l-6.6,1.4l6.6,8.3c0.2,0.3,0.4,0.5,0.4,0.6c0.1,0.2,0.1,0.3,0.1,0.5v1.1
					c0,0.2,0,0.3-0.1,0.3s-0.2,0-0.4,0C389.6,281.4,389.4,281.2,389.1,280.9z"/>
				<path class="st45" d="M392.7,286.9c-0.1-0.2-0.1-0.3-0.1-0.4s0-0.2,0.1-0.3l8.4-16.9c0.1-0.2,0.4-0.2,0.6-0.1l0.9,0.5
					c0.1,0.1,0.2,0.2,0.3,0.3c0.1,0.2,0.1,0.3,0.1,0.4s0,0.2-0.1,0.3l-8.4,16.8c0,0.1-0.1,0.2-0.2,0.2s-0.2,0-0.4-0.1l-0.9-0.4
					C392.9,287.2,392.8,287,392.7,286.9z"/>
				<path class="st45" d="M405.4,289.4c-0.1-0.2-0.1-0.3-0.1-0.5v-1.1c0-0.2,0-0.3,0.1-0.4s0.2-0.1,0.4-0.2l6.6-1.3l-6.6-8.2
					c-0.2-0.2-0.3-0.4-0.4-0.6s-0.1-0.3-0.1-0.5v-1c0-0.2,0-0.3,0.1-0.3s0.2,0,0.4,0c0.1,0.1,0.2,0.2,0.4,0.3s0.2,0.2,0.3,0.3
					l7.6,9.5c0.3,0.3,0.4,0.6,0.5,0.8c0.1,0.2,0.2,0.5,0.2,0.7v0.4c0,0.2-0.1,0.4-0.2,0.5s-0.3,0.2-0.5,0.2l-7.6,1.5
					c-0.3,0.1-0.5,0-0.6,0C405.6,289.6,405.5,289.5,405.4,289.4z"/>
			</g>
		</g>
		<g>
			<g class="st1">
				<g>
					<path class="st2" d="M355.7,619.7c-2.5-1.4-6.6-1.4-9,0.1l-19.1,11.7c-2.5,1.5-2.4,3.9,0.1,5.4l62.3,35.8
						c2.5,1.4,6.6,1.4,9-0.1l19.1-11.7c2.5-1.5,2.4-3.9-0.1-5.4L355.7,619.7z"/>
				</g>
			</g>
			<g>
				
					<linearGradient id="SVGID_30_" gradientUnits="userSpaceOnUse" x1="336.5502" y1="573.4614" x2="378.5251" y2="564.4039" gradientTransform="matrix(1 0 0 1 0 -90)">
					<stop  offset="0" style="stop-color:#F8A980"/>
					<stop  offset="1" style="stop-color:#FFDF75"/>
				</linearGradient>
				<path class="st46" d="M340.2,478.7l23.8-1c0,0,0.7-3.5,3.5-3.2s10.9-0.1,10.9-0.1s4.9-0.8-2.4,2.4c-7.3,3.2-8.6,4.2-10.8,3.5
					c-1.7,0.1-21.7,6.5-23.5,5.6c-1.7-0.9-1.4-3.1-1.4-3.1L340.2,478.7z"/>
				
					<linearGradient id="SVGID_31_" gradientUnits="userSpaceOnUse" x1="338.0916" y1="553.6175" x2="359.3383" y2="553.6175" gradientTransform="matrix(1 0 0 1 0 -90)">
					<stop  offset="0" style="stop-color:#AFF57A"/>
					<stop  offset="1" style="stop-color:#54D169"/>
				</linearGradient>
				<path class="st47" d="M359.2,441.3h-3.9c0,0-7,2.1-10.9,14.3c-4,12.1-6,17.9-6.1,20.5s-1.1,7.8,1.8,9.3c2.9,1.4,5.1-0.2,6.5-1.9
					c1.4-1.7,0.8-3.4,2.1-6.9c1.3-3.4,2.1-8.5,4.6-10.3s6-6.4,6-6.4L359.2,441.3z"/>
				
					<linearGradient id="SVGID_32_" gradientUnits="userSpaceOnUse" x1="345.7806" y1="724.9227" x2="365.003" y2="724.9227" gradientTransform="matrix(1 0 0 1 0 -90)">
					<stop  offset="0" style="stop-color:#334752"/>
					<stop  offset="1" style="stop-color:#6A6D89"/>
				</linearGradient>
				<path class="st48" d="M347.2,631l-1,0.8c0,0-0.3,2.5-0.2,3.9c0.1,1.5-0.6,3,0.2,3.3c0.8,0.3,2.8,0.9,4.2,0.3
					c1.4-0.6,1.2-2.1,2.1-2.1c0.9,0.1,5.9-1.2,9.3-2.9s4.5-4.2,1.7-4s-8.8,1.2-11.2,1.6c-0.5,0.1-0.6-0.3-0.6-0.3l-1-0.2l-1.3-0.2
					L347.2,631z"/>
				<ellipse class="st49" cx="348.9" cy="631.8" rx="2.8" ry="1.4"/>
				
					<linearGradient id="SVGID_33_" gradientUnits="userSpaceOnUse" x1="271.5422" y1="696.7959" x2="412.711" y2="640.461" gradientTransform="matrix(1 0 0 1 0 -90)">
					<stop  offset="0" style="stop-color:#15EDED"/>
					<stop  offset="1" style="stop-color:#029CF5"/>
				</linearGradient>
				<path class="st50" d="M356.2,516.5c-6,1.2-4.3,4.5-4.3,7.5c0,3.1-1.8,19.5-4,40.8c-2,19.7-1,28.2-1.2,43.3
					c-0.2,12-1,18.2-1.4,20.2c-0.1,0.3-0.1,0.5-0.1,0.8c0,1.7,1.8,3.1,3.9,3.1c2.2,0,3.9-1.4,3.9-3.1c0,0,2.3-30.1,2.7-33.3
					c2-15.9,7.4-35,9.4-42.1s10.7-31.9,10.7-31.9S369.5,514,356.2,516.5z"/>
				
					<linearGradient id="SVGID_34_" gradientUnits="userSpaceOnUse" x1="379.5412" y1="541.5697" x2="371.3676" y2="524.9998" gradientTransform="matrix(1 0 0 1 0 -90)">
					<stop  offset="0" style="stop-color:#F8A980"/>
					<stop  offset="1" style="stop-color:#FFDF75"/>
				</linearGradient>
				<path class="st51" d="M366.6,449.5c0.5-0.9,3.6-7.8,4.2-12.3c0.5-4.6,0.3-7.1,0.6-7.2c0.3-0.1,3.1-0.8,3.1-0.8l5.4,2.9l2.5,1.1
					c0,0,1.5,3.9-0.5,5.8c-4.8,4.3-3.8,14.7-0.6,14.5c0.3,0,0,3.4-3.2,2.3s-7.3-3.1-7.8-3.6C369.7,451.6,366.6,449.5,366.6,449.5z"
					/>
				
					<linearGradient id="SVGID_35_" gradientUnits="userSpaceOnUse" x1="370.481" y1="525.3585" x2="394.3407" y2="510.1149" gradientTransform="matrix(1 0 0 1 0 -90)">
					<stop  offset="0" style="stop-color:#F8A980"/>
					<stop  offset="1" style="stop-color:#FFDF75"/>
				</linearGradient>
				<path class="st52" d="M384.3,431.7c0.6-0.2,1.1-0.7,1.1-1.3c0-0.8-2.4-5.1-3.6-6c-0.1-0.8-0.2-1.8-0.3-2.7
					c-0.2-1.8-0.7-2.9-2.1-2.9c-1.5,0-4.7,0.7-4.7,0.7s-3.8,2.1-3.8,2.2s-4.7,10.6-4.7,10.9s6.2,8.1,16.1,8.2c1.2,0,2.3-1,2.3-2.3
					c0-0.3-0.1-0.5-0.1-0.8c-0.1-0.5-0.2-1.3-0.2-1.9c0-1.1,0.6-1.6,0.3-2.1c-0.3-0.5-0.7-0.9-0.5-1.4
					C384.1,432.2,384.2,432,384.3,431.7z"/>
				
					<linearGradient id="SVGID_36_" gradientUnits="userSpaceOnUse" x1="392.6464" y1="745.9637" x2="391.2376" y2="738.5052" gradientTransform="matrix(1 0 0 1 0 -90)">
					<stop  offset="0" style="stop-color:#334752"/>
					<stop  offset="1" style="stop-color:#6A6D89"/>
				</linearGradient>
				<path class="st53" d="M381.8,647.5l-1.3,1.1c0,0-0.4,3.4-0.2,5.5c0.1,2-0.7,4.2,0.2,4.5c0.9,0.4,3.4,1.2,5.2,0.4
					c1.8-0.8,1.5-3,2.6-2.8c1.1,0.1,7.4-1.7,11.6-4c4.3-2.4,5.6-5.8,2.1-5.6c-3.4,0.2-11,1.7-14,2.3c-0.6,0.2-0.8-0.4-0.8-0.4
					l-1.3-0.2l-1.6-0.2L381.8,647.5z"/>
				<ellipse class="st49" cx="383.9" cy="648.5" rx="3.4" ry="1.9"/>
				
					<linearGradient id="SVGID_37_" gradientUnits="userSpaceOnUse" x1="452.08" y1="761.3129" x2="335.4298" y2="607.8777" gradientTransform="matrix(1 0 0 1 0 -90)">
					<stop  offset="0" style="stop-color:#15EDED"/>
					<stop  offset="1" style="stop-color:#029CF5"/>
				</linearGradient>
				<path class="st54" d="M390.5,520.3l-13.8,2.2c-0.9-5.8-4.8-10.1-9.4-10.1c-5.3,0-9.6,5.6-9.6,12.6c0,2.4,0.5,4.7,1.5,6.6
					c2.5,6.8,12.9,14.9,14,25.4c1.2,11.2,4.6,15.9,5.1,22.4s1,36.6,1.5,46.2c0.6,9.6,0.9,21,0.9,21c0,1.5,1.4,2.8,3.2,2.8
					c1.8,0,3.2-1.2,3.2-2.8c0,0,3.5-48.8,3.7-59.7s0.1-11.6,0.2-25.3C391.1,545.8,390.5,520.3,390.5,520.3z"/>
				
					<linearGradient id="SVGID_38_" gradientUnits="userSpaceOnUse" x1="358.4882" y1="520.1913" x2="381.6857" y2="612.9817" gradientTransform="matrix(1 0 0 1 0 -90)">
					<stop  offset="0" style="stop-color:#AFF57A"/>
					<stop  offset="1" style="stop-color:#54D169"/>
				</linearGradient>
				<path class="st55" d="M390.6,486.5c2.4-9.9,3.9-13.8,3.9-13.8l-1.4-18.3c0,0-5.7-3.4-11.9-4.5c-4.7-0.9-7.2-1.3-11.7-3.6
					c-1.1-0.6-3.3-3.6-8.7-5.1c0,0-5.2-1.6-7.3,2c-2.8,4.7-1.3,10.1,0.1,22s1.5,25.7,0,35.9c-0.9,5.9-2.4,12.9-1.6,17.1
					c0,0.1,0,0.1,0,0.1c0,0.4,0.2,0.8,0.3,1.2c0.4,1,0.9,1.7,1.7,2.1c3.2,2.6,9.9,4.4,17.8,4.4c7.5,0,13.8-1.4,17.1-3.7
					c1.5-0.5,3.1-2.3,3.1-7.3C391.8,506.1,388.2,496.4,390.6,486.5z"/>
				<path class="st2" d="M380.4,419.6c0.7-3.6-0.1-11-0.1-11c0-0.6-0.5-1-1.1-1c-9.1-0.3-18.2,11.1-20,13.5c-1,1.1-1.6,2.5-1.6,4.1
					c0,0.5,0.1,0.9,0.2,1.4v0.1c0.6,4.4,7.6,11.7,7.6,11.7h0.1c0.8,0.7,1.8,1.2,3,1.2c2,0,3.7-1.4,4-3.2c0,0,0,0,0-0.1
					c0.2-1.1,0.8-3.5,0.5-8c-0.1-1.5,4.5-2.9,4.6-2.9h0.1c0.9-0.3,1.5-1,1.8-1.8l0,0l0,0c0-0.2,0.1-0.3,0.1-0.5
					C379.8,422.1,379.8,422,380.4,419.6z"/>
				
					<linearGradient id="SVGID_39_" gradientUnits="userSpaceOnUse" x1="403.4757" y1="581.8728" x2="461.8001" y2="573.6984" gradientTransform="matrix(1 0 0 1 0 -90)">
					<stop  offset="0" style="stop-color:#F8A980"/>
					<stop  offset="1" style="stop-color:#FFDF75"/>
				</linearGradient>
				<path class="st56" d="M407.6,486.8l30.2-1.3c0,0,0.9-4.4,4.4-4.1s13.8-0.1,13.8-0.1s6.2-1-3.1,3.1s-10.8,5.3-13.7,4.4
					c-2.1,0.1-27.5,8.2-29.7,7.1s-1.8-4-1.8-4L407.6,486.8z"/>
				
					<linearGradient id="SVGID_40_" gradientUnits="userSpaceOnUse" x1="411.9518" y1="588.9325" x2="384.4238" y2="542.8857" gradientTransform="matrix(1 0 0 1 0 -90)">
					<stop  offset="0" style="stop-color:#AFF57A"/>
					<stop  offset="1" style="stop-color:#54D169"/>
				</linearGradient>
				<path class="st57" d="M411.3,485.2c-0.3-1.5-2.9-3.7-8.4-16.4c-3.2-7.5-5.8-11-7.4-12.7c-1.5-1.7-3.7-2.8-6.3-2.8
					c-4.5,0-8.1,3.4-8.1,7.6c0,0.5,0.1,1,0.2,1.5c-0.1,5.6,16.5,21.7,19,24.7s3.3,6,6.5,8.6c3.5,2.7,4.5,1.2,3.8-2
					C410,490.7,412.1,489,411.3,485.2z"/>
			</g>
		</g>
		<g>
			<g class="st1">
				<g>
					<path class="st2" d="M544.4,791.2c2.8-1.6,7.4-1.6,10.2,0.1l21.5,13.2c2.8,1.7,2.7,4.4-0.1,6L505.7,851
						c-2.8,1.6-7.4,1.6-10.2-0.1L474,837.7c-2.8-1.7-2.7-4.4,0.1-6L544.4,791.2z"/>
				</g>
			</g>
			
				<linearGradient id="SVGID_41_" gradientUnits="userSpaceOnUse" x1="-331.548" y1="498.2917" x2="-284.2064" y2="488.0761" gradientTransform="matrix(-0.9118 -0.4106 -0.4106 0.9118 449.8554 53.6157)">
				<stop  offset="0" style="stop-color:#F8A980"/>
				<stop  offset="1" style="stop-color:#FFDF75"/>
			</linearGradient>
			<path class="st58" d="M546,637.5l-24-12.1c0,0,0.9-3.9-2.1-4.9s-11.2-5.1-11.2-5.1s-4.7-3.1,1.4,3.6c6,6.7,6.9,8.3,9.5,8.6
				c1.7,0.9,19.3,16.7,21.5,16.6c2.2-0.1,2.9-2.6,2.9-2.6L546,637.5z"/>
			
				<linearGradient id="SVGID_42_" gradientUnits="userSpaceOnUse" x1="-329.7928" y1="475.9528" x2="-305.838" y2="475.9528" gradientTransform="matrix(-0.9118 -0.4106 -0.4106 0.9118 449.8554 53.6157)">
				<stop  offset="0" style="stop-color:#EDF2F6"/>
				<stop  offset="1" style="stop-color:#C3D0D8"/>
			</linearGradient>
			<path class="st59" d="M543.7,590.3l4,1.8c0,0,6.2,5.4,4.6,19.7c-1.5,14.3-2.2,21.2-3.3,23.9c-1.1,2.8-2.5,8.6-6.1,8.7
				c-3.6,0.1-5.1-2.6-5.8-5s0.8-3.9,1-8s1.8-9.7,0-12.7s-3.2-9.3-3.2-9.3L543.7,590.3z"/>
			
				<linearGradient id="SVGID_43_" gradientUnits="userSpaceOnUse" x1="1739.5322" y1="898.2955" x2="1761.2146" y2="898.2955" gradientTransform="matrix(-1 0 0 1 2295.1426 -90)">
				<stop  offset="0" style="stop-color:#334752"/>
				<stop  offset="1" style="stop-color:#6A6D89"/>
			</linearGradient>
			<path class="st60" d="M554,803.9l1.2,0.9c0,0,0.3,2.8,0.2,4.4c-0.1,1.6,0.6,3.4-0.2,3.7c-0.9,0.3-3.1,1-4.7,0.3
				c-1.6-0.7-1.4-2.4-2.4-2.3c-1,0.1-6.6-1.4-10.5-3.3c-3.9-1.9-5-4.7-1.9-4.5s10,1.4,12.6,1.8c0.6,0.1,0.7-0.3,0.7-0.3l1.1-0.2
				l1.4-0.2L554,803.9z"/>
			<path class="st49" d="M549,804.8c0,0.9,1.4,1.5,3.1,1.5c1.7,0,3.1-0.7,3.1-1.5s-1.4-1.5-3.1-1.5C550.4,803.2,549,803.9,549,804.8
				z"/>
			
				<linearGradient id="SVGID_44_" gradientUnits="userSpaceOnUse" x1="1655.8376" y1="866.6446" x2="1815.0466" y2="803.1105" gradientTransform="matrix(-1 0 0 1 2295.1426 -90)">
				<stop  offset="0" style="stop-color:#FFE600"/>
				<stop  offset="1" style="stop-color:#FFC400"/>
			</linearGradient>
			<path class="st61" d="M543.8,674.8c6.8,1.3,4.9,5,4.9,8.5s2,21.9,4.5,46c2.3,22.2,1.1,31.9,1.4,48.9c0.2,13.5,1.2,20.5,1.6,22.8
				c0.1,0.3,0.2,0.6,0.2,0.9c0,1.9-2,3.5-4.4,3.5s-4.4-1.6-4.4-3.5c0,0-2.6-33.9-3-37.5c-2.3-18-8.3-39.5-10.6-47.5S522,681,522,681
				S528.8,671.9,543.8,674.8z"/>
			
				<linearGradient id="SVGID_45_" gradientUnits="userSpaceOnUse" x1="1777.6752" y1="691.4715" x2="1768.4574" y2="672.7847" gradientTransform="matrix(-1 0 0 1 2295.1426 -90)">
				<stop  offset="0" style="stop-color:#F8A980"/>
				<stop  offset="1" style="stop-color:#FFDF75"/>
			</linearGradient>
			<path class="st62" d="M532.1,599.1c-0.5-1-4.1-8.8-4.7-13.9c-0.6-5.1-0.3-8-0.7-8.1c-0.3-0.1-3.5-0.9-3.5-0.9l-6.1,3.2l-2.8,1.2
				c0,0-1.7,4.4,0.6,6.5c5.4,4.8,4.3,16.6,0.6,16.3c-0.3,0,0,3.9,3.6,2.6c3.6-1.3,8.2-3.5,8.8-4
				C528.7,601.6,532.1,599.1,532.1,599.1z"/>
			
				<linearGradient id="SVGID_46_" gradientUnits="userSpaceOnUse" x1="1767.4131" y1="673.261" x2="1794.3223" y2="656.0688" gradientTransform="matrix(-1 0 0 1 2295.1426 -90)">
				<stop  offset="0" style="stop-color:#F8A980"/>
				<stop  offset="1" style="stop-color:#FFDF75"/>
			</linearGradient>
			<path class="st63" d="M512.2,579.1c-0.7-0.3-1.2-0.8-1.2-1.4c0-0.8,2.7-5.7,4-6.8c0.1-0.9,0.2-2.1,0.4-3c0.3-2,0.8-3.3,2.4-3.3
				s5.3,0.8,5.3,0.8s4.3,2.4,4.3,2.5s5.3,12,5.3,12.4s-7,9.2-18.2,9.2c-1.4,0-2.5-1.1-2.5-2.5c0-0.3,0.1-0.6,0.2-0.9
				c0.1-0.6,0.2-1.5,0.2-2.1c0-1.2-0.7-1.8-0.4-2.4c0.3-0.6,0.8-1,0.5-1.6C512.4,579.7,512.3,579.4,512.2,579.1z"/>
			
				<linearGradient id="SVGID_47_" gradientUnits="userSpaceOnUse" x1="1792.351" y1="922.0209" x2="1790.7626" y2="913.6116" gradientTransform="matrix(-1 0 0 1 2295.1426 -90)">
				<stop  offset="0" style="stop-color:#334752"/>
				<stop  offset="1" style="stop-color:#6A6D89"/>
			</linearGradient>
			<path class="st64" d="M515,822.4l1.5,1.2c0,0,0.4,3.9,0.3,6.2c-0.1,2.3,0.8,4.7-0.3,5.1c-1.1,0.4-3.9,1.3-5.9,0.4
				s-1.7-3.3-2.9-3.2c-1.2,0.1-8.3-1.9-13.1-4.5c-4.8-2.7-6.3-6.6-2.4-6.3s12.4,1.9,15.8,2.5c0.7,0.2,0.8-0.4,0.8-0.4l1.4-0.2
				l1.8-0.3L515,822.4z"/>
			<path class="st49" d="M508.7,823.6c0,1.2,1.7,2.1,3.9,2.1c2.1,0,3.9-1,3.9-2.1c0-1.2-1.7-2.1-3.9-2.1S508.7,822.5,508.7,823.6z"
				/>
			
				<linearGradient id="SVGID_48_" gradientUnits="userSpaceOnUse" x1="504.6405" y1="837.35" x2="542.2502" y2="837.35" gradientTransform="matrix(1 0 0 1 0 -90)">
				<stop  offset="0" style="stop-color:#FFE600"/>
				<stop  offset="1" style="stop-color:#FFC400"/>
			</linearGradient>
			<path class="st65" d="M505.2,679l15.6,2.5c1-6.5,5.4-11.4,10.6-11.4c6,0,10.8,6.4,10.8,14.2c0,2.8-0.6,5.3-1.6,7.5
				c-2.9,7.6-14.5,16.8-15.8,28.6c-1.3,12.6-5.2,17.9-5.8,25.3c-0.5,7.4-1.1,41.2-1.7,52.1c-0.7,10.8-1,23.7-1,23.7
				c0,1.7-1.6,3.1-3.6,3.1s-3.6-1.4-3.6-3.1c0,0-3.9-55-4.2-67.4c-0.3-12.3-0.1-13.1-0.3-28.5C504.5,707.8,505.2,679,505.2,679z"/>
			
				<linearGradient id="SVGID_49_" gradientUnits="userSpaceOnUse" x1="502.5593" y1="697.6236" x2="582.6621" y2="793.2089" gradientTransform="matrix(1 0 0 1 0 -90)">
				<stop  offset="0" style="stop-color:#EDF2F6"/>
				<stop  offset="1" style="stop-color:#C3D0D8"/>
			</linearGradient>
			<path class="st66" d="M505.1,640.9c-2.7-11.2-4.4-15.6-4.4-15.6l1.6-20.7c0,0,6.4-3.8,13.5-5.1c5.4-1,8.1-1.5,13.2-4.1
				c1.3-0.7,3.7-4.1,9.8-5.8c0,0,5.9-1.8,8.3,2.3c3.1,5.3,1.5,11.3-0.1,24.8s-1.7,29,0,40.5c1,6.7,2.7,14.6,1.9,19.3
				c0,0.1,0,0.1,0,0.2c0,0.4-0.2,0.9-0.4,1.3c-0.4,1.1-1,1.9-2,2.4c-3.6,2.9-11.1,5-20.1,5c-8.5,0-15.5-1.6-19.3-4.2
				c-1.7-0.6-3.5-2.6-3.5-8.3C503.7,663,507.8,652.1,505.1,640.9z"/>
			<path class="st67" d="M516.5,565.5c-0.8-4.1,0.1-12.4,0.1-12.4c0-0.7,0.6-1.2,1.3-1.2c10.2-0.4,20.5,12.6,22.5,15.2
				c1.1,1.3,1.8,2.8,1.8,4.6c0,0.5-0.1,1-0.2,1.5c0,0.1,0,0.1,0,0.1c-0.7,5-8.6,13.2-8.6,13.2h-0.1c-0.8,0.8-2,1.4-3.4,1.4
				c-2.3,0-4.2-1.6-4.6-3.6c0,0,0,0,0-0.1c-0.3-1.2-0.9-4-0.6-9c0.1-1.6-5.1-3.2-5.2-3.2h-0.1c-1-0.3-1.7-1.1-2-2l0,0c0,0,0,0,0-0.1
				c0-0.2-0.1-0.3-0.1-0.5C517.2,568.3,517.2,568.1,516.5,565.5z"/>
			
				<linearGradient id="SVGID_50_" gradientUnits="userSpaceOnUse" x1="6280.3691" y1="-3967.5894" x2="6360.353" y2="-3978.7993" gradientTransform="matrix(-0.1406 0.9901 0.9901 0.1406 5318.6665 -5018.3823)">
				<stop  offset="0" style="stop-color:#F8A980"/>
				<stop  offset="1" style="stop-color:#FFDF75"/>
			</linearGradient>
			<path class="st68" d="M499.8,646.7l-8.3,45.6c0,0-5.1,0.3-5.3,4.3c-0.2,4-2.3,15.4-2.3,15.4s-2.1,6.8,3.9-3
				c6-9.7,7.6-11.2,7.1-14.6c0.5-2.3,12.8-28.5,12.3-31.3c-0.4-2.3,4.1-11.4,1.8-15c-0.3-0.5-4.5,3.3-4.5,3.3L499.8,646.7z"/>
			
				<linearGradient id="SVGID_51_" gradientUnits="userSpaceOnUse" x1="491.4765" y1="695.1833" x2="530.5188" y2="758.4582" gradientTransform="matrix(1 0 0 1 0 -90)">
				<stop  offset="0" style="stop-color:#EDF2F6"/>
				<stop  offset="1" style="stop-color:#C3D0D8"/>
			</linearGradient>
			<path class="st69" d="M499.1,649.3c-1.2-1.3,0.5-5.3-2-20.6c-1.5-9.1-1.2-14-0.7-16.5c0.4-2.5,1.8-5,4.2-6.5
				c4.2-2.7,9.7-1.6,12.3,2.4c0.3,0.5,0.6,1,0.8,1.6c3.5,5.2-2.6,30.6-3.1,35c-0.6,4.3,0.2,8.1-3.4,7.9
				C504.6,652.4,501,651.3,499.1,649.3z"/>
		</g>
		<g>
			<g class="st1">
				<g>
					<path class="st2" d="M385,738.3c-1.9-1.2-5.1-1.3-7.1-0.2l-54.5,30.5c-2,1.1-2,3-0.1,4.2l68,43c1.9,1.2,5.1,1.3,7.1,0.2
						l54.5-30.5c2-1.1,2-3,0.1-4.2L385,738.3z"/>
				</g>
			</g>
			<g>
				
					<linearGradient id="SVGID_52_" gradientUnits="userSpaceOnUse" x1="394.3619" y1="817.5604" x2="387.5458" y2="889.7493" gradientTransform="matrix(1 0 0 1 0 -90)">
					<stop  offset="0" style="stop-color:#FFDF40"/>
					<stop  offset="1" style="stop-color:#FF8359"/>
				</linearGradient>
				<path class="st70" d="M449.6,779.7l0.2-5.6c0.2-0.8-0.2-1.6-1.2-2.3l-61-38.5c-1.7-1.1-4.6-1.2-6.4-0.2l-48.9,27.4
					c-0.9,0.5-1.4,1.3-1.4,2l-0.2,5.8c0,0.1,0,0.2,0,0.3v0.1l0,0c0.1,0.6,0.5,1.2,1.3,1.7l61,38.5c1.7,1.1,4.6,1.2,6.4,0.2
					l48.9-27.4C449.1,781.2,449.6,780.5,449.6,779.7L449.6,779.7z"/>
				<g>
					<g>
						
							<linearGradient id="SVGID_53_" gradientUnits="userSpaceOnUse" x1="391.2972" y1="852.0668" x2="382.0024" y2="907.8361" gradientTransform="matrix(1 0 0 1 0 -90)">
							<stop  offset="0" style="stop-color:#FFDF40"/>
							<stop  offset="1" style="stop-color:#FF8359"/>
						</linearGradient>
						<path class="st71" d="M387.5,733.3c-1.7-1.1-4.6-1.2-6.4-0.2l-48.9,27.4c-1.8,1-1.8,2.7-0.1,3.8l61,38.5
							c1.7,1.1,4.6,1.2,6.4,0.2l48.9-27.4c1.8-1,1.8-2.7,0.1-3.8L387.5,733.3z"/>
					</g>
				</g>
			</g>
			<g>
				
					<linearGradient id="SVGID_54_" gradientUnits="userSpaceOnUse" x1="403.0107" y1="818.8963" x2="400.2224" y2="893.565" gradientTransform="matrix(1 0 0 1 0 -90)">
					<stop  offset="0" style="stop-color:#AFF57A"/>
					<stop  offset="1" style="stop-color:#54D169"/>
				</linearGradient>
				<path class="st72" d="M461.4,770.4l-0.1-5.6c0.1-0.8-0.3-1.6-1.4-2.2l-63.2-34.8c-1.8-1-4.7-0.9-6.4,0.2l-47.2,30.2
					c-0.9,0.6-1.3,1.3-1.2,2.1l0.1,5.8c0,0.1,0,0.2,0,0.3v0.1l0,0c0.1,0.6,0.5,1.2,1.4,1.7l63.2,34.8c1.8,1,4.7,0.9,6.4-0.2
					l47.2-30.2C461.1,771.9,461.5,771.1,461.4,770.4L461.4,770.4z"/>
				<g>
					<g>
						
							<linearGradient id="SVGID_55_" gradientUnits="userSpaceOnUse" x1="420.013" y1="817.9019" x2="370.0296" y2="911.2603" gradientTransform="matrix(1 0 0 1 0 -90)">
							<stop  offset="0" style="stop-color:#AFF57A"/>
							<stop  offset="1" style="stop-color:#54D169"/>
						</linearGradient>
						<path class="st73" d="M396.8,727.7c-1.8-1-4.7-0.9-6.4,0.2l-47.2,30.2c-1.7,1.1-1.7,2.8,0.1,3.8l63.2,34.8
							c1.8,1,4.7,0.9,6.4-0.2l47.2-30.2c1.7-1.1,1.7-2.8-0.1-3.8L396.8,727.7z"/>
					</g>
				</g>
			</g>
			<g>
				
					<linearGradient id="SVGID_56_" gradientUnits="userSpaceOnUse" x1="406.0797" y1="776.9501" x2="394.0999" y2="855.8524" gradientTransform="matrix(1 0 0 1 0 -90)">
					<stop  offset="0" style="stop-color:#15EDED"/>
					<stop  offset="1" style="stop-color:#029CF5"/>
				</linearGradient>
				<path class="st74" d="M455.8,758.3v-5.6c0.2-0.8-0.3-1.6-1.3-2.2l-62.5-36c-1.8-1-4.6-1-6.4,0.1l-47.7,29.3
					c-0.9,0.6-1.4,1.3-1.3,2.1v5.8c0,0.1,0,0.2,0,0.3v0.1l0,0c0.1,0.6,0.5,1.2,1.3,1.7l62.5,36c1.8,1,4.6,1,6.4-0.1l47.7-29.4
					C455.4,759.8,455.8,759,455.8,758.3L455.8,758.3z"/>
				<g>
					<g>
						
							<linearGradient id="SVGID_57_" gradientUnits="userSpaceOnUse" x1="408.7125" y1="803.3106" x2="372.3608" y2="906.5836" gradientTransform="matrix(1 0 0 1 0 -90)">
							<stop  offset="0" style="stop-color:#15EDED"/>
							<stop  offset="1" style="stop-color:#029CF5"/>
						</linearGradient>
						<path class="st75" d="M391.9,714.4c-1.8-1-4.6-1-6.4,0.1l-47.7,29.3c-1.7,1.1-1.7,2.8,0.1,3.8l62.5,36c1.8,1,4.6,1,6.4-0.1
							l47.7-29.3c1.7-1.1,1.7-2.8-0.1-3.8L391.9,714.4z"/>
					</g>
				</g>
				<path class="st36" d="M400.5,769.3l-3.4-27.9l-17.4,2.8l4.3-12.4l-30.8,2.5l-15.5,9.5c-1.7,1.1-1.7,2.8,0.1,3.8l62.5,36
					c1.8,1,4.6,1,6.4-0.1l9.4-5.8l-0.9-11.2L400.5,769.3z"/>
				<ellipse class="st20" cx="414.7" cy="752.3" rx="14.4" ry="11"/>
			</g>
		</g>
		<g>
			<g class="st1">
				<g>
					<path class="st2" d="M253.8,633.5c1.6-1,4.4-1.1,6.1-0.2l46.4,26c1.7,0.9,1.7,2.6,0.1,3.6l-57.9,36.6c-1.6,1-4.4,1.1-6.1,0.2
						l-46.4-26c-1.7-0.9-1.7-2.6-0.1-3.6L253.8,633.5z"/>
				</g>
			</g>
			<g>
				<path class="st10" d="M198.9,668.8l-0.2-4.8c-0.2-0.7,0.2-1.4,1-1.9l51.9-32.8c1.5-0.9,3.9-1,5.4-0.1l41.6,23.3
					c0.8,0.5,1.2,1.1,1.2,1.7l0.2,4.9c0,0.1,0,0.2,0,0.3l0,0l0,0c-0.1,0.5-0.4,1.1-1.1,1.5L247,693.7c-1.5,0.9-3.9,1-5.4,0.1
					L200,670.5C199.3,670,198.9,669.4,198.9,668.8L198.9,668.8L198.9,668.8z"/>
				<g>
					<g>
						
							<linearGradient id="SVGID_58_" gradientUnits="userSpaceOnUse" x1="1317.8481" y1="743.7572" x2="1309.9341" y2="791.2421" gradientTransform="matrix(-1 0 0 1 1566.291 -90)">
							<stop  offset="0" style="stop-color:#EDF2F6"/>
							<stop  offset="1" style="stop-color:#E6E4EB"/>
						</linearGradient>
						<path class="st76" d="M251.7,629.3c1.5-0.9,3.9-1,5.4-0.1l41.6,23.3c1.5,0.9,1.6,2.3,0.1,3.2l-51.9,32.8
							c-1.5,0.9-3.9,1-5.4,0.1l-41.6-23.3c-1.5-0.9-1.6-2.3-0.1-3.2L251.7,629.3z"/>
					</g>
				</g>
			</g>
			<g>
				<path class="st10" d="M194.9,658.4v-4.8c-0.1-0.7,0.2-1.4,1.1-1.9l53.2-30.6c1.5-0.9,4-0.8,5.4,0.1l40.6,25
					c0.8,0.5,1.1,1.1,1.1,1.8v4.9c0,0.1,0,0.2,0,0.3l0,0l0,0c-0.1,0.5-0.4,1-1.1,1.4L242,685.2c-1.5,0.9-4,0.8-5.4-0.1l-40.6-25
					C195.2,659.7,194.9,659,194.9,658.4L194.9,658.4L194.9,658.4z"/>
				<g>
					<g>
						
							<linearGradient id="SVGID_59_" gradientUnits="userSpaceOnUse" x1="1322.9994" y1="726.9858" x2="1314.6136" y2="775.3945" gradientTransform="matrix(-1 0 0 1 1566.291 -90)">
							<stop  offset="0" style="stop-color:#EDF2F6"/>
							<stop  offset="1" style="stop-color:#E6E4EB"/>
						</linearGradient>
						<path class="st77" d="M249.3,621.1c1.5-0.9,4-0.8,5.4,0.1l40.6,25c1.5,0.9,1.5,2.4,0,3.2L242.1,680c-1.5,0.9-4,0.8-5.4-0.1
							L196,655c-1.5-0.9-1.5-2.4,0-3.2L249.3,621.1z"/>
					</g>
				</g>
			</g>
			<g>
				<g>
					<g>
						<path class="st2" d="M253.7,649.4c-0.1,0.1-0.2,0.2-0.2,0.3s0,0.2,0.2,0.3l1.3,0.9c0.1,0.1,0.3,0.1,0.4,0.1
							c0.2,0,0.3,0,0.5-0.1l1.5-0.9c0.1-0.1,0.2-0.2,0.2-0.3s0-0.2-0.2-0.3l-1.3-0.9c-0.1-0.1-0.3-0.1-0.5-0.1s-0.3,0-0.5,0.1
							L253.7,649.4z"/>
					</g>
					<g>
						<path class="st2" d="M246.3,638c-0.1,0.1-0.2,0.2-0.2,0.3s0,0.2,0.2,0.3l0.6,0.4c0.1,0.1,0.3,0.1,0.4,0.1c0.2,0,0.3,0,0.4-0.1
							l0.1-0.1c0.7-0.4,1.4-0.6,2-0.6s1.3,0.2,2,0.5s1.6,0.9,2.6,1.7c1.4,1,2.9,1.4,4.6,1.1c-0.6,1-0.2,2.1,1.3,3.1
							c1.1,0.8,1.9,1.4,2.3,1.9c0.5,0.5,0.7,0.9,0.6,1.3c-0.1,0.4-0.5,0.8-1.2,1.3l-0.1,0.1c-0.1,0.1-0.2,0.2-0.2,0.3s0,0.2,0.1,0.3
							l0.6,0.5c0.1,0.1,0.3,0.1,0.4,0.1c0.2,0,0.3,0,0.5-0.1l0.1-0.1c1.1-0.7,1.8-1.4,2-2c0.2-0.7,0.1-1.4-0.4-2.1
							c-0.5-0.7-1.4-1.5-2.6-2.3c-0.6-0.4-1-0.9-1.2-1.2c-0.2-0.4-0.1-0.8,0.1-1.2l0.1-0.1c0.1-0.2,0.1-0.4,0.1-0.5
							s-0.1-0.2-0.3-0.3l-0.3-0.2c-0.2-0.1-0.3-0.2-0.5-0.2s-0.4,0-0.7,0h-0.3c-0.7,0.1-1.3,0.1-1.8-0.1c-0.5-0.1-1.1-0.4-1.7-0.9
							c-1.2-0.9-2.3-1.5-3.3-1.9s-2-0.5-3.1-0.4C248.5,637,247.4,637.4,246.3,638L246.3,638z"/>
					</g>
					<g>
						<path class="st2" d="M248.2,652.8c-0.1,0.1-0.2,0.2-0.2,0.3s0,0.2,0.2,0.3l1.3,0.9c0.1,0.1,0.3,0.1,0.4,0.1
							c0.2,0,0.3,0,0.5-0.1l1.5-0.9c0.1-0.1,0.2-0.2,0.2-0.3s0-0.2-0.2-0.3l-1.3-0.9c-0.1-0.1-0.3-0.1-0.5-0.1s-0.3,0-0.5,0.1
							L248.2,652.8z"/>
					</g>
					<g>
						<path class="st2" d="M227.4,649.5c-1.1,0.7-1.8,1.4-2,2c-0.2,0.7-0.1,1.4,0.4,2c0.5,0.7,1.4,1.5,2.6,2.3
							c0.6,0.4,1,0.9,1.2,1.2c0.1,0.4,0.1,0.8-0.1,1.2l-0.1,0.1c-0.1,0.2-0.2,0.4-0.1,0.5c0,0.1,0.1,0.2,0.3,0.3l0.3,0.2
							c0.1,0.1,0.3,0.2,0.5,0.2s0.4,0,0.8,0h0.2c0.7-0.1,1.3-0.1,1.8,0.1c0.5,0.1,1.1,0.4,1.7,0.9c1.2,0.9,2.3,1.5,3.3,1.9
							s2,0.5,3,0.5c1-0.1,2.1-0.5,3.2-1.2l0.1-0.1c0.1-0.1,0.2-0.2,0.2-0.3s0-0.2-0.1-0.3l-0.6-0.5c-0.1-0.1-0.3-0.1-0.4-0.1
							c-0.2,0-0.3,0-0.5,0.1l-0.1,0.1c-0.7,0.4-1.4,0.6-2,0.7c-0.6,0-1.3-0.2-2-0.5s-1.6-0.9-2.7-1.7c-1.4-1-2.9-1.4-4.5-1.1
							c0.6-1,0.2-2.1-1.3-3.1c-1.1-0.8-1.8-1.4-2.3-1.9s-0.7-0.9-0.6-1.3c0.1-0.4,0.4-0.8,1.1-1.3l0.1-0.1c0.1-0.1,0.2-0.2,0.2-0.3
							s0-0.2-0.1-0.3l-0.6-0.4c-0.1-0.1-0.3-0.1-0.4-0.1c-0.2,0-0.3,0-0.5,0.1L227.4,649.5z"/>
					</g>
					<g>
						<path class="st2" d="M242.6,656.2c-0.2,0.1-0.2,0.2-0.2,0.3s0,0.2,0.2,0.3l1.3,0.9c0.1,0.1,0.3,0.1,0.4,0.1
							c0.2,0,0.3,0,0.5-0.1l1.5-0.9c0.1-0.1,0.2-0.2,0.2-0.3s0-0.2-0.2-0.3l-1.3-0.9c-0.1-0.1-0.3-0.1-0.5-0.1s-0.3,0-0.5,0.1
							L242.6,656.2z"/>
					</g>
				</g>
			</g>
		</g>
		<g>
			<g class="st1">
				<g>
					<path class="st2" d="M156.6,730.7c-0.9-0.6-2.5-0.6-3.5-0.1l-26.5,14.9c-1,0.5-1,1.5-0.1,2.1l33.1,20.9
						c0.9,0.6,2.5,0.6,3.5,0.1l26.5-14.9c1-0.5,1-1.5,0.1-2.1L156.6,730.7z"/>
				</g>
			</g>
			<g>
				<path class="st10" d="M188,750.8l0.1-2.7c0.1-0.4-0.1-0.8-0.6-1.1l-29.7-18.8c-0.8-0.5-2.2-0.6-3.1-0.1l-23.8,13.3
					c-0.5,0.3-0.7,0.6-0.7,1l-0.1,2.8c0,0.1,0,0.1,0,0.2l0,0l0,0c0,0.3,0.2,0.6,0.6,0.8l29.7,18.8c0.8,0.5,2.2,0.6,3.1,0.1
					l23.8-13.3C187.8,751.6,188,751.2,188,750.8L188,750.8z"/>
				<g>
					<g>
						
							<linearGradient id="SVGID_60_" gradientUnits="userSpaceOnUse" x1="41.1106" y1="832.2573" x2="36.5846" y2="859.4138" gradientTransform="matrix(1 0 0 1 118.5625 -90)">
							<stop  offset="0" style="stop-color:#EDF2F6"/>
							<stop  offset="1" style="stop-color:#E6E4EB"/>
						</linearGradient>
						<path class="st78" d="M157.8,728.2c-0.8-0.5-2.2-0.6-3.1-0.1l-23.8,13.3c-0.9,0.5-0.9,1.3,0,1.8l29.7,18.8
							c0.8,0.5,2.2,0.6,3.1,0.1l23.8-13.3c0.9-0.5,0.9-1.3,0-1.9L157.8,728.2z"/>
					</g>
				</g>
			</g>
			<g>
				
					<linearGradient id="SVGID_61_" gradientUnits="userSpaceOnUse" x1="157.1898" y1="808.4399" x2="164.0535" y2="847.0887" gradientTransform="matrix(1 0 0 1 0 -90)">
					<stop  offset="0" style="stop-color:#AFF57A"/>
					<stop  offset="1" style="stop-color:#54D169"/>
				</linearGradient>
				<path class="st79" d="M190.3,744.9v-2.7c0.1-0.4-0.1-0.8-0.6-1.1l-30.4-17.5c-0.9-0.5-2.3-0.5-3.1,0L133,737.9
					c-0.5,0.3-0.7,0.6-0.6,1v2.8c0,0.1,0,0.1,0,0.2l0,0l0,0c0,0.3,0.3,0.6,0.6,0.8l30.4,17.5c0.9,0.5,2.3,0.5,3.1,0l23.2-14.3
					C190.1,745.6,190.3,745.3,190.3,744.9L190.3,744.9L190.3,744.9z"/>
				<g>
					<g>
						
							<linearGradient id="SVGID_62_" gradientUnits="userSpaceOnUse" x1="165.1432" y1="805.6236" x2="156.0406" y2="863.6696" gradientTransform="matrix(1 0 0 1 0 -90)">
							<stop  offset="0" style="stop-color:#AFF57A"/>
							<stop  offset="1" style="stop-color:#54D169"/>
						</linearGradient>
						<path class="st80" d="M159.2,723.6c-0.9-0.5-2.3-0.5-3.1,0l-23.2,14.3c-0.8,0.5-0.8,1.4,0,1.9l30.4,17.5
							c0.9,0.5,2.3,0.5,3.1,0l23.2-14.3c0.8-0.5,0.8-1.4,0-1.9L159.2,723.6z"/>
					</g>
				</g>
			</g>
			<g>
				<g>
					<g>
						<path class="st45" d="M166.6,739.4c0.1,0,0.1,0.1,0.1,0.1s0,0.1-0.1,0.1l-6.1,3.5c-0.1,0-0.1,0.1-0.2,0.1
							c-0.1,0-0.2,0-0.2-0.1l-0.4-0.2c-0.1,0-0.1-0.1-0.1-0.1s0-0.1,0.1-0.1l2.7-1.6l-3.2-1.8l-2.7,1.6c-0.1,0-0.1,0.1-0.2,0.1
							c-0.1,0-0.2,0-0.2-0.1l-0.4-0.2c-0.1,0-0.1-0.1-0.1-0.1s0-0.1,0.1-0.1l6.1-3.5c0.1,0,0.1-0.1,0.2-0.1c0.1,0,0.1,0,0.2,0
							l0.4,0.2c0.1,0,0.1,0.1,0.1,0.1s0,0.1-0.1,0.1l-2.6,1.5l3.2,1.8l2.6-1.5c0.1,0,0.1-0.1,0.2-0.1c0.1,0,0.2,0,0.2,0L166.6,739.4
							z"/>
					</g>
					<g>
						<path class="st45" d="M159.7,736.1c0.1,0.4-0.2,0.8-0.9,1.2c-0.6,0.4-1.3,0.6-2.1,0.5c-0.7,0-1.4-0.2-2.1-0.6l-1.6-0.9
							l-2.3,1.4c-0.1,0-0.1,0.1-0.2,0.1c-0.1,0-0.1,0-0.2,0l-0.5-0.3c-0.1,0-0.1-0.1-0.1-0.1s0-0.1,0.1-0.1l6.1-3.5
							c0.1,0,0.1-0.1,0.2-0.1c0.1,0,0.1,0,0.2,0l2.3,1.3C159.3,735.3,159.7,735.7,159.7,736.1z M155.4,736.8
							c0.9,0.5,1.8,0.5,2.6,0.1c0.4-0.2,0.6-0.5,0.6-0.7s-0.3-0.5-0.7-0.8l-1.6-0.9l-2.4,1.4L155.4,736.8L155.4,736.8z"/>
					</g>
					<g>
						<path class="st45" d="M172,743c0.1,0.4-0.2,0.8-0.9,1.2c-0.6,0.4-1.3,0.6-2.1,0.5c-0.7,0-1.4-0.2-2.1-0.6l-1.6-0.9l-2.3,1.4
							c-0.1,0-0.1,0.1-0.2,0.1c-0.1,0-0.1,0-0.2-0.1l-0.4-0.3c-0.1,0-0.1-0.1-0.1-0.1s0-0.1,0.1-0.1l6.1-3.5c0.1,0,0.1-0.1,0.2-0.1
							c0.1,0,0.1,0,0.2,0l2.3,1.3C171.6,742.2,171.9,742.6,172,743z M167.6,743.6c0.9,0.5,1.8,0.5,2.6,0.1c0.4-0.2,0.6-0.5,0.6-0.7
							s-0.3-0.5-0.7-0.8l-1.6-0.9l-2.4,1.4L167.6,743.6L167.6,743.6z"/>
					</g>
				</g>
			</g>
		</g>
		<g>
			<ellipse class="st9" cx="245.8" cy="793.2" rx="27.8" ry="16.1"/>
			<path class="st10" d="M271.4,764.4l-12.3-1l-8.7-0.8l-18,0.6L221,764l-1.8,1.2l3.2,26.4l0,0c0,7.3,10.3,13.3,22.9,13.3
				c12.3,0,22.3-5.6,22.9-12.6l0,0L271.4,764.4z"/>
			<path class="st11" d="M271.4,764.9c0,7.6-11.7,13.7-26.1,13.7s-26.1-6.1-26.1-13.7c0-7.6,11.7-13.7,26.1-13.7
				C259.7,751.2,271.4,757.3,271.4,764.9z"/>
			<ellipse class="st12" cx="245.3" cy="764.9" rx="17" ry="8.9"/>
		</g>
		<g>
			<g class="st1">
				<g>
					<path class="st2" d="M307.8,700.7c-0.8-0.5-2.1-0.5-2.9-0.1l-22.5,12.6c-0.8,0.5-0.8,1.2,0,1.7l28.1,17.7
						c0.8,0.5,2.1,0.5,2.9,0.1l22.5-12.6c0.8-0.5,0.8-1.2,0-1.8L307.8,700.7z"/>
				</g>
			</g>
			<g>
				<path class="st10" d="M334.4,717.8l0.1-2.3c0.1-0.3-0.1-0.7-0.5-0.9l-25.2-15.9c-0.7-0.5-1.9-0.5-2.6-0.1L286,709.8
					c-0.4,0.2-0.6,0.5-0.6,0.8l-0.1,2.4v0.1l0,0l0,0c0,0.3,0.2,0.5,0.5,0.7l25.2,15.9c0.7,0.5,1.9,0.5,2.6,0.1l20.2-11.3
					C334.2,718.4,334.4,718.1,334.4,717.8L334.4,717.8L334.4,717.8z"/>
				<g>
					<g>
						
							<linearGradient id="SVGID_63_" gradientUnits="userSpaceOnUse" x1="191.8466" y1="800.4952" x2="188.0111" y2="823.5083" gradientTransform="matrix(1 0 0 1 118.5625 -90)">
							<stop  offset="0" style="stop-color:#EDF2F6"/>
							<stop  offset="1" style="stop-color:#E6E4EB"/>
						</linearGradient>
						<path class="st81" d="M308.8,698.6c-0.7-0.5-1.9-0.5-2.6-0.1L286,709.8c-0.7,0.4-0.8,1.1,0,1.6l25.2,15.9
							c0.7,0.5,1.9,0.5,2.6,0.1l20.2-11.3c0.7-0.4,0.8-1.1,0-1.6L308.8,698.6z"/>
					</g>
				</g>
			</g>
			<g>
				
					<linearGradient id="SVGID_64_" gradientUnits="userSpaceOnUse" x1="308.2285" y1="780.3203" x2="314.0448" y2="813.0716" gradientTransform="matrix(1 0 0 1 0 -90)">
					<stop  offset="0" style="stop-color:#59C2FF"/>
					<stop  offset="1" style="stop-color:#1270E3"/>
				</linearGradient>
				<path class="st82" d="M336.3,712.7v-2.3c0.1-0.3-0.1-0.7-0.5-0.9L310,694.7c-0.7-0.4-1.9-0.4-2.6,0l-19.7,12.1
					c-0.4,0.2-0.6,0.5-0.5,0.9v2.4v0.1l0,0l0,0c0,0.3,0.2,0.5,0.5,0.7l25.8,14.9c0.7,0.4,1.9,0.4,2.6,0l19.7-12.1
					C336.2,713.4,336.4,713,336.3,712.7L336.3,712.7z"/>
				<g>
					<g>
						
							<linearGradient id="SVGID_65_" gradientUnits="userSpaceOnUse" x1="315.0547" y1="777.9266" x2="307.3404" y2="827.1193" gradientTransform="matrix(1 0 0 1 0 -90)">
							<stop  offset="0" style="stop-color:#59C2FF"/>
							<stop  offset="1" style="stop-color:#1270E3"/>
						</linearGradient>
						<path class="st83" d="M310,694.7c-0.7-0.4-1.9-0.4-2.6,0l-19.7,12.1c-0.7,0.4-0.7,1.1,0,1.6l25.8,14.9c0.7,0.4,1.9,0.4,2.6,0
							l19.7-12.1c0.7-0.4,0.7-1.1,0-1.6L310,694.7z"/>
					</g>
				</g>
			</g>
			<g>
				<g>
					<g>
						<path class="st45" d="M309.6,703.7c0.5,0.3,0.8,0.5,0.9,0.8c0.2,0.3,0.2,0.6,0.1,0.8c-0.1,0.3-0.3,0.5-0.6,0.7h-0.2h-0.2
							l-0.4-0.2l-0.1-0.1c0,0,0-0.1,0.1-0.1c0.3-0.3,0.5-0.6,0.4-0.8s-0.3-0.5-0.7-0.7c-0.9-0.5-1.9-0.4-3,0.2
							c-0.2,0.1-0.4,0.2-0.7,0.4c-0.3,0.2-0.5,0.3-0.7,0.4c-1,0.7-1.1,1.3-0.2,1.8c0.4,0.2,0.8,0.3,1.2,0.4c0.4,0,0.9-0.1,1.4-0.3
							c0.1,0,0.2,0,0.2,0h0.2l0.4,0.2l0.1,0.1l-0.1,0.1c-0.3,0.2-0.7,0.3-1.2,0.4c-0.4,0.1-0.9,0.1-1.4,0s-1-0.2-1.5-0.5
							c-0.7-0.4-1-0.8-1-1.2s0.4-0.9,1-1.3c0.1-0.1,0.4-0.2,0.7-0.4c0.3-0.2,0.6-0.4,0.7-0.5c0.7-0.4,1.5-0.6,2.2-0.7
							C308.2,703.2,308.9,703.3,309.6,703.7z"/>
					</g>
					<g>
						<path class="st45" d="M319.5,709.1c0.4,0.2,0.7,0.5,0.8,0.7c0.1,0.3,0.2,0.5,0.1,0.7s-0.2,0.4-0.4,0.6l-0.2,0.1h-0.2l-0.4-0.2
							l-0.1-0.1v-0.1c0.2-0.2,0.3-0.4,0.2-0.6c-0.1-0.2-0.3-0.4-0.6-0.6c-0.4-0.2-0.7-0.3-1.1-0.3s-0.7,0.1-1,0.2
							c-0.2,0.1-0.3,0.2-0.3,0.4c0,0.1,0,0.3,0.1,0.4c0.1,0.2,0.3,0.4,0.6,0.7c0.3,0.3,0.5,0.6,0.7,0.8c0.1,0.2,0.2,0.4,0.1,0.6
							c-0.1,0.2-0.3,0.4-0.6,0.6c-0.5,0.3-1.1,0.5-1.8,0.4c-0.7,0-1.3-0.2-2-0.6c-0.4-0.2-0.7-0.5-0.9-0.7c-0.2-0.3-0.2-0.5-0.2-0.7
							c0.1-0.2,0.2-0.4,0.5-0.6h0.2h0.2l0.4,0.2c0.1,0,0.1,0.1,0,0.2c-0.2,0.2-0.2,0.4-0.2,0.6c0.1,0.2,0.3,0.4,0.7,0.7
							c0.4,0.2,0.9,0.4,1.3,0.4s0.7-0.1,1-0.2c0.2-0.1,0.3-0.2,0.3-0.4c0-0.1,0-0.3-0.2-0.5c-0.1-0.2-0.3-0.4-0.6-0.7
							c-0.3-0.3-0.5-0.5-0.6-0.8c-0.1-0.2-0.1-0.4,0-0.6c0.1-0.2,0.3-0.4,0.6-0.6c0.3-0.2,0.6-0.3,1-0.4c0.4-0.1,0.8-0.1,1.2,0
							C318.7,708.7,319.1,708.9,319.5,709.1z"/>
					</g>
					<g>
						<path class="st45" d="M314.6,706.4c0.4,0.2,0.7,0.5,0.8,0.7c0.1,0.2,0.2,0.5,0.1,0.7s-0.2,0.4-0.4,0.6l-0.2,0.1h-0.2l-0.4-0.2
							l-0.1-0.1v-0.1c0.2-0.2,0.3-0.3,0.2-0.6c-0.1-0.2-0.3-0.4-0.6-0.6c-0.4-0.2-0.7-0.3-1.1-0.3s-0.7,0.1-1,0.2
							c-0.2,0.1-0.3,0.2-0.3,0.4c0,0.1,0,0.3,0.1,0.4c0.1,0.2,0.3,0.4,0.6,0.7c0.3,0.3,0.5,0.6,0.7,0.8c0.1,0.2,0.1,0.4,0.1,0.6
							c-0.1,0.2-0.3,0.4-0.6,0.6c-0.5,0.3-1.1,0.5-1.8,0.4c-0.7,0-1.3-0.2-2-0.6c-0.4-0.2-0.7-0.5-0.9-0.7c-0.2-0.3-0.2-0.5-0.2-0.7
							c0.1-0.2,0.2-0.4,0.5-0.6h0.2h0.2l0.4,0.2c0.1,0.1,0.1,0.1,0,0.2c-0.2,0.2-0.2,0.4-0.2,0.6c0.1,0.2,0.3,0.5,0.7,0.7
							c0.4,0.2,0.9,0.4,1.3,0.4s0.7-0.1,1-0.2c0.2-0.1,0.3-0.2,0.3-0.4c0-0.1,0-0.3-0.2-0.5c-0.1-0.2-0.3-0.4-0.6-0.7
							c-0.3-0.3-0.5-0.5-0.6-0.8c-0.1-0.2-0.1-0.4,0-0.6c0.1-0.2,0.3-0.4,0.6-0.6c0.3-0.2,0.6-0.3,1-0.4c0.4-0.1,0.8-0.1,1.2,0
							C313.8,706.1,314.2,706.2,314.6,706.4z"/>
					</g>
				</g>
			</g>
		</g>
	</g>
</g>
</svg>
